<svg preserveAspectRatio="none" width="100%" height="100%" overflow="visible" style="display: block;" viewBox="0 0 141 51.6286" fill="none" xmlns="http://www.w3.org/2000/svg">
<path id="Vector 1" d="M0 7.05714V4.08572C13.0824 4.08572 36.5743 4.01143 39.7429 3.71429C40.319 -1.33714 47.0336 0 50.5143 0.742858L55.4504 3.71429H128.184L134.829 0.371429L135.2 0L141 31.5714V47.1714L100.099 51.6286L72.3735 50.1429H56.5306C57.2507 42.5905 56.8186 28.3029 49.3292 31.5714C41.8398 34.84 40.6876 42.3429 41.0477 45.6857L37.447 47.1714L28.0852 46.8H25.5648L7.20134 26.3714C6.36119 23.1524 4.32081 16.3429 2.88054 14.8571C1.44027 13.3714 1.56029 11.019 1.80034 10.0286L1.0802 7.8L0 7.05714Z" fill="var(--fill-0, #F34A23)"/>
</svg>
