<svg preserveAspectRatio="none" width="100%" height="100%" overflow="visible" style="display: block;" viewBox="0 0 22.8493 24.4987" fill="none" xmlns="http://www.w3.org/2000/svg">
<g id="Group 37312">
<path id="Vector" d="M3.22999 14.2938C2.98945 14.0309 3.00185 13.7892 3.09856 13.5151C3.31307 12.9113 3.74332 12.4972 4.24673 12.1401L4.42156 12.0161C4.36123 11.9644 4.29698 11.9176 4.22937 11.876C3.53501 11.5275 3.03905 10.9733 2.62491 10.3372C2.00495 9.37752 1.69249 8.30127 1.52138 7.18658C1.44434 6.6616 1.40992 6.13125 1.41847 5.60072C1.42963 4.02354 1.03285 2.57903 0.100434 1.29448C0.0660123 1.24302 0.0353478 1.18915 0.00867941 1.13329C0.00123988 1.12089 0.00867945 1.10353 0 1.05641C0.247984 0.808428 0.598882 0.77495 0.932421 0.77867C1.24386 0.787175 1.55351 0.828739 1.85616 0.902662C3.03213 1.17522 4.08957 1.81803 4.87289 2.7365C5.07872 2.96961 5.28826 3.20023 5.51145 3.44946C5.64674 3.15825 5.67655 2.82905 5.59576 2.51828C5.4642 1.95305 5.21025 1.42356 4.85181 0.967138C4.80593 0.905142 4.75634 0.843146 4.71542 0.77867C4.70178 0.756352 4.71542 0.717914 4.71542 0.644759C4.80562 0.611512 4.89856 0.586204 4.99316 0.569123C6.04834 0.46125 6.9572 0.838186 7.7867 1.44451C8.48069 1.93108 9.05723 2.5665 9.47424 3.30439C9.52431 3.38252 9.58027 3.45671 9.64163 3.52633C10.212 2.29633 10.9597 1.17048 11.7235 0C12.4972 0.921261 12.9634 1.97519 13.4593 3.01053C13.7941 2.62739 14.0793 2.25914 14.4116 1.93056C15.0663 1.2548 15.8808 0.755003 16.7799 0.47737C16.9718 0.411558 17.1754 0.386498 17.3775 0.403791C17.5797 0.421084 17.7761 0.48035 17.9541 0.577803C17.4581 1.53254 17.1221 2.52076 17.4581 3.63421C17.8052 3.04791 18.2468 2.52297 18.765 2.08059C19.5312 1.40979 20.3905 0.94358 21.432 0.831987C21.7842 0.779527 22.1427 0.787494 22.4922 0.855545C22.6141 0.891664 22.7334 0.935989 22.8493 0.988216C22.8493 1.19528 22.7253 1.31556 22.6137 1.44203C22.0708 2.03223 21.7148 2.77001 21.5907 3.56229C21.525 4.18548 21.525 4.81386 21.5907 5.43705C21.6635 6.22872 21.6593 7.02558 21.5783 7.81646C21.4544 8.85303 21.0601 9.77057 20.512 10.6323C20.3071 10.9268 20.0813 11.2061 19.8363 11.468C19.6949 11.6329 19.5325 11.7792 19.3589 11.9553C19.5412 12.1438 19.6974 12.3136 19.8623 12.4748C20.0927 12.7107 20.2628 12.9987 20.3583 13.3143C20.4165 13.4765 20.438 13.6496 20.4213 13.8211C20.4046 13.9926 20.35 14.1583 20.2615 14.3062C20.207 14.2826 20.1524 14.2764 20.1252 14.2467C19.7284 13.7966 19.1506 13.8958 18.6621 14.1772C18.3729 14.362 18.097 14.5667 17.8363 14.7898C17.3407 15.1978 16.7438 15.4639 16.1091 15.5598C15.5587 15.6398 14.9971 15.5854 14.4724 15.4011C14.3244 15.3575 14.1662 15.3641 14.0223 15.4196C13.4755 15.6366 12.9882 15.9293 12.7265 16.5033C12.6084 16.7223 12.5419 16.9653 12.5319 17.2138C12.5319 17.4494 12.5319 17.6837 12.5319 17.9193C12.5336 18.9035 12.4035 19.8835 12.145 20.8331C12.0485 21.1329 11.9367 21.4276 11.8102 21.716C12.0942 21.716 12.3744 21.7358 12.6509 21.716C12.9274 21.6961 12.9349 21.6713 13.1469 21.9044C13.0006 22.3868 12.9708 22.4116 12.517 22.4128C12.2045 22.4128 11.8908 22.4202 11.5771 22.4128C11.1159 22.3992 10.8989 22.0011 11.1295 21.6056C11.4215 21.0893 11.6015 20.5173 11.6577 19.9268C11.7334 19.2622 11.7817 18.5951 11.8388 17.928C11.8524 17.7544 11.9057 17.5461 11.6491 17.4395C11.5251 17.5994 11.5821 17.7743 11.5747 17.9354C11.5387 18.7873 11.5151 19.6416 11.2969 20.4723C11.1271 21.1183 10.8443 21.6974 10.3174 22.14C10.0155 22.3903 9.64953 22.5509 9.26097 22.6037C8.83352 22.685 8.39484 22.6875 7.96649 22.6112C7.76832 22.576 7.57623 22.5126 7.39613 22.4227C7.21014 22.321 7.19898 22.1586 7.33661 21.9887C7.55236 21.7222 7.8115 21.53 8.17976 21.5622C8.4575 21.5858 8.73648 21.6143 9.01423 21.6403C9.09234 21.6478 9.17046 21.6552 9.24857 21.6564C9.49655 21.6564 9.74454 21.6564 9.99252 21.6564C10.5344 20.918 10.8518 20.0389 10.9063 19.1245C10.9473 18.7251 10.9473 18.3225 10.9063 17.923C10.8394 17.4085 10.7439 16.9026 10.4215 16.4823C10.2558 16.2768 10.0659 16.092 9.85613 15.9317C9.6875 15.7953 9.47548 15.7148 9.30189 15.5833C8.96959 15.3353 8.65093 15.2312 8.22688 15.4122C7.98509 15.5151 7.66519 15.4965 7.39365 15.4544C6.87164 15.3738 6.3546 15.2671 5.90574 14.951C5.54418 14.7052 5.16777 14.482 4.77866 14.2826C4.57078 14.175 4.346 14.1037 4.11406 14.0719C3.92958 14.0649 3.74532 14.0905 3.56973 14.1475C3.45239 14.1861 3.3387 14.2351 3.22999 14.2938ZM11.7197 1.42095C11.0489 2.37808 10.4564 3.38776 9.94789 4.44015C9.51497 5.30588 9.17699 6.21591 8.93983 7.15434C8.72656 8.05328 8.56785 8.95222 8.76004 9.88216C8.96711 10.8667 9.40976 11.7073 10.2628 12.2703C11.044 12.7873 11.9082 12.9014 12.7575 12.486C13.773 11.99 14.2752 11.0836 14.4835 10.0062C14.5889 9.45439 14.5579 8.90139 14.5158 8.33599C14.4415 7.46591 14.2582 6.60861 13.9702 5.78423C13.488 4.34569 12.8114 2.97987 11.959 1.72473C11.8921 1.6243 11.8115 1.53626 11.7197 1.42095ZM1.11593 1.63422C1.32176 2.08183 1.55114 2.50216 1.71853 2.95969C2.14258 4.09918 2.24426 5.29818 2.25666 6.49842C2.26658 7.49036 2.45752 8.41782 2.94853 9.27956C3.38374 10.0458 3.88467 10.76 4.67698 11.2064C5.27214 11.5437 5.8983 11.6924 6.6001 11.4209C6.45379 11.2312 6.31988 11.0799 6.20952 10.9138C5.8139 10.2954 5.51651 9.61951 5.32794 8.91007C5.09856 8.10412 5.05392 7.27957 5.04028 6.45998C5.02788 5.81399 5.18535 5.16551 5.25231 4.51703C5.27115 4.38071 5.24411 4.24199 5.17543 4.12274C4.429 3.10228 3.5065 2.30253 2.32113 1.84624C1.94178 1.68138 1.52877 1.60872 1.11593 1.63422ZM16.7042 11.9355C16.7241 11.9578 16.7427 11.9962 16.7662 12.0012C17.4048 12.1351 18.0061 12.0669 18.5591 11.6912C19.3837 11.127 19.9231 10.3273 20.3273 9.43827C20.6066 8.87775 20.7702 8.26673 20.8084 7.64163C20.8232 7.17542 20.8766 6.70797 20.858 6.243C20.8344 5.60568 20.7042 4.9696 20.7216 4.336C20.7389 3.7024 20.827 3.09608 21.1345 2.5282C21.313 2.2021 21.5064 1.88468 21.7197 1.52014C21.5567 1.51879 21.3939 1.52915 21.2324 1.55114C20.4343 1.72237 19.7 2.11317 19.1121 2.67947C18.5736 3.20273 18.1253 3.81148 17.7854 4.48107C17.7548 4.54218 17.737 4.60898 17.7334 4.67726C17.7298 4.74554 17.7403 4.81383 17.7643 4.87785C18.052 6.06321 18.2405 7.26097 18.1723 8.48849C18.1352 9.3817 17.8646 10.2496 17.3874 11.0055C17.1841 11.3292 16.9361 11.6267 16.7042 11.9355ZM16.9237 1.48294C16.6174 1.42343 16.6187 1.42715 16.4575 1.48294C15.3601 1.84004 14.5976 2.59887 14.0024 3.54989C13.8983 3.71604 13.9305 3.86607 14.0099 4.03594C14.2169 4.47363 14.4166 4.91504 14.5988 5.36389C14.9897 6.35112 15.2353 7.38983 15.3279 8.44758C15.3638 8.89936 15.3514 9.35368 15.2907 9.80281C15.1928 10.6274 14.7947 11.3428 14.3831 12.0458C14.3223 12.1487 14.2752 12.2603 14.2132 12.3843C14.5058 12.4848 14.7476 12.3608 14.9572 12.2752C16.4265 11.6924 17.2671 10.5654 17.4655 9.03282C17.5967 8.06838 17.5479 7.08799 17.3217 6.14133C17.1977 5.65776 17.0737 5.17543 16.9658 4.68938C16.8505 4.17357 16.7315 3.65528 16.6596 3.13204C16.5901 2.56291 16.7538 2.01859 16.9262 1.48294H16.9237ZM9.02786 12.1463C8.45716 11.3057 8.11178 10.3327 8.02477 9.32048C7.97393 8.88468 7.97393 8.44445 8.02477 8.00864C8.13889 7.17532 8.34687 6.35756 8.64473 5.57096C8.79476 5.17915 8.95843 4.79229 9.11094 4.41412C8.61426 3.4834 7.95206 2.65103 7.15682 1.95783C6.76203 1.61176 6.28736 1.36931 5.77555 1.25232C6.31616 2.08555 6.42651 2.95349 6.23928 3.87475C6.12521 4.43768 6.0099 5.00184 5.92062 5.56972C5.7515 6.6054 5.79751 7.66481 6.05577 8.68192C6.31978 9.78493 6.9277 10.7754 7.79166 11.5102C8.14508 11.8211 8.57105 12.0382 9.03034 12.1413L9.02786 12.1463ZM13.8636 13.0142C13.2039 13.2188 12.5654 13.4011 11.8797 13.3949C11.1929 13.402 10.5093 13.3016 9.85365 13.0973C9.69618 13.044 9.55855 13.0167 9.43332 13.1642C9.25034 13.3917 9.15266 13.676 9.15719 13.9678C9.16172 14.2597 9.26817 14.5408 9.45812 14.7625C9.58663 14.8982 9.73404 15.0148 9.89581 15.1084C10.3637 15.3642 10.764 15.7276 11.0638 16.1686C11.1164 16.2463 11.1803 16.3157 11.2535 16.3744C11.5933 16.6608 11.9045 16.6149 12.1599 16.243C12.2212 16.1535 12.2755 16.0594 12.3223 15.9615C12.4548 15.6607 12.677 15.4083 12.9584 15.2386C13.1469 15.132 13.3477 15.044 13.5461 14.9559C14.4042 14.5765 14.5703 13.6416 13.8648 13.0216L13.8636 13.0142ZM3.96651 13.4432C4.13842 13.4136 4.31295 13.402 4.48727 13.4085C4.93837 13.4737 5.36317 13.6606 5.71604 13.9491C5.8327 14.0519 5.95705 14.1455 6.08801 14.2293C6.81709 14.6683 7.57592 14.9274 8.44386 14.641C8.4203 14.2988 8.33599 13.964 8.39303 13.6552C8.45006 13.3465 8.65093 13.0502 8.77492 12.7761C8.36079 12.6001 7.95657 12.4376 7.5598 12.2554C7.47823 12.2115 7.38865 12.1844 7.29641 12.1759C7.20416 12.1674 7.11114 12.1775 7.02291 12.2058C6.53371 12.3799 6.00393 12.4053 5.50029 12.2789C5.39557 12.2508 5.28437 12.2596 5.18535 12.3037C4.67553 12.5551 4.25177 12.9521 3.96775 13.4445L3.96651 13.4432ZM19.4494 13.3378C19.225 12.641 18.8654 12.4265 18.2244 12.5939C17.9677 12.6583 17.7135 12.7352 17.4544 12.7861C16.9968 12.8753 16.5467 12.9497 16.0669 12.8456C15.649 12.7538 15.199 12.7377 14.7625 12.9944C15.0824 13.5709 15.0105 14.1587 14.7935 14.7402C14.8553 14.7803 14.922 14.8124 14.9919 14.8356C15.8735 14.9671 16.7079 14.8927 17.411 14.2616C17.9925 13.7396 18.6261 13.3316 19.4506 13.3391L19.4494 13.3378ZM9.26469 21.9664C8.81956 22.1189 8.4079 21.9453 7.95657 22.1338C8.62613 22.2677 8.91255 22.2343 9.26469 21.9664Z" fill="var(--fill-0, #090909)"/>
<path id="Vector_2" d="M7.62921 23.4063C7.71848 23.0753 7.94663 23.0629 8.16114 23.0344C8.22076 23.0227 8.28225 23.0249 8.34093 23.0406C8.8741 23.2303 9.38247 23.074 9.88464 22.9166C9.97282 22.8866 10.0669 22.8782 10.159 22.892C10.2511 22.9058 10.3386 22.9414 10.4141 22.9959C10.5902 23.1112 10.6001 23.3171 10.4141 23.4088C10.1908 23.5139 9.95365 23.5866 9.70981 23.6246C9.15871 23.7151 8.59376 23.6674 8.06566 23.4857C7.92219 23.4492 7.77635 23.4227 7.62921 23.4063V23.4063Z" fill="var(--fill-0, #090909)"/>
<path id="Vector_3" d="M15.0081 23.7744C14.9423 23.908 14.8384 24.019 14.7095 24.0934C14.5806 24.1678 14.4325 24.2022 14.2839 24.1923C13.7272 24.1861 13.1469 24.3312 12.6162 24.0621C12.5992 23.9684 12.6199 23.8718 12.6737 23.7933C12.7276 23.7148 12.8104 23.6608 12.9039 23.643C13.4669 23.5246 14.0445 23.4911 14.6175 23.5438C14.7452 23.5512 14.8655 23.6864 15.0081 23.7744Z" fill="var(--fill-0, #090909)"/>
<path id="Vector_4" d="M12.0434 22.7824C12.2603 22.7704 12.4778 22.7733 12.6944 22.7911C12.7526 22.8013 12.8077 22.8247 12.8554 22.8595C12.9031 22.8943 12.9422 22.9396 12.9696 22.992C12.9907 23.0726 12.8866 23.204 12.8097 23.2871C12.7449 23.3572 12.6567 23.4013 12.5617 23.4111C12.1451 23.4297 11.726 23.4445 11.3094 23.4272C11.2299 23.4229 11.1548 23.3892 11.0989 23.3326C11.0429 23.2759 11.0101 23.2005 11.0068 23.1209C11.0167 23.0357 11.0551 22.9563 11.1159 22.8957C11.1768 22.8351 11.2563 22.7969 11.3416 22.7874C11.576 22.7675 11.8103 22.7824 12.0434 22.7824Z" fill="var(--fill-0, #090909)"/>
<path id="Vector_5" d="M9.47051 23.9373C9.53871 24.1146 9.53003 24.2299 9.39488 24.3018C9.29405 24.3744 9.18049 24.4274 9.0601 24.458C8.62984 24.5014 8.19215 24.5436 7.77181 24.3948C7.64782 24.3489 7.53499 24.2894 7.53251 24.1468C7.53003 24.0042 7.63914 23.936 7.77181 23.8988C8.33075 23.7547 8.91867 23.768 9.47051 23.9373Z" fill="var(--fill-0, #090909)"/>
<path id="Vector_6" d="M13.5734 23.114C13.6428 22.7854 13.7817 22.6255 14.0842 22.6056C14.4562 22.5821 14.8282 22.6056 15.2002 22.6056C15.2156 22.6058 15.2311 22.6079 15.246 22.6118C15.494 22.6701 15.6391 22.8152 15.618 22.9652C15.5969 23.1152 15.4419 23.1996 15.1778 23.1934C14.7153 23.1834 14.2516 23.1822 13.7891 23.1723C13.7153 23.1609 13.6429 23.1414 13.5734 23.114Z" fill="var(--fill-0, #090909)"/>
<path id="Vector_7" d="M15.2399 21.9183C15.1878 22.1377 15.0836 22.2382 14.8741 22.232C14.548 22.2208 14.2219 22.232 13.8958 22.232C13.8088 22.2372 13.722 22.2195 13.6441 22.1805C13.5661 22.1415 13.4999 22.0827 13.4519 22.01C13.5151 21.6938 13.7681 21.5748 14.0247 21.5723C14.4488 21.5636 14.9472 21.3739 15.2399 21.9183Z" fill="var(--fill-0, #090909)"/>
<path id="Vector_8" d="M12.3955 23.8433C12.3335 24.1532 12.0781 24.1694 11.8834 24.1904C11.5422 24.2142 11.1998 24.2188 10.858 24.2041C10.7677 24.2054 10.6795 24.1771 10.6067 24.1236C10.534 24.0701 10.4807 23.9943 10.455 23.9077C10.6832 23.5358 11.106 23.5779 11.4395 23.5544C11.7731 23.5308 12.1537 23.5271 12.3955 23.8433Z" fill="var(--fill-0, #090909)"/>
</g>
</svg>
