<svg preserveAspectRatio="none" width="100%" height="100%" overflow="visible" style="display: block;" viewBox="0 0 56.7467 20.7734" fill="none" xmlns="http://www.w3.org/2000/svg">
<g id="Group 37314">
<rect id="Rectangle 4" x="22.0266" y="11.4403" width="4.48" height="4.48" rx="2.24" fill="var(--fill-0, #E11D22)"/>
<rect id="Rectangle 5" x="28.7467" y="9.94714" width="24.64" height="7.46667" rx="3.73333" fill="var(--fill-0, #158FD3)"/>
<g id="Group 37313">
<path id="Vector" d="M5.0393 10.7362C4.85863 10.5387 4.86794 10.3571 4.94058 10.1513C5.1017 9.69776 5.42486 9.3867 5.80298 9.11849L5.93429 9.02535C5.88898 8.98658 5.84072 8.95139 5.78994 8.92012C5.2684 8.65842 4.89588 8.24212 4.58482 7.76436C4.11916 7.04352 3.88447 6.23514 3.75595 5.39789C3.69808 5.00358 3.67223 4.60523 3.67865 4.20674C3.68703 3.02211 3.38901 1.93713 2.68867 0.972291C2.66281 0.933644 2.63978 0.893182 2.61975 0.85122C2.61416 0.841907 2.61975 0.828869 2.61323 0.793479C2.79949 0.607216 3.06305 0.582071 3.31358 0.584865C3.5475 0.591253 3.78008 0.622472 4.00741 0.677996C4.89068 0.882718 5.68493 1.36554 6.27329 2.05541C6.42789 2.23049 6.58528 2.40372 6.75292 2.59091C6.85454 2.37218 6.87693 2.12492 6.81625 1.8915C6.71743 1.46695 6.52668 1.06924 6.25746 0.726424C6.223 0.679858 6.18575 0.633293 6.15501 0.584865C6.14477 0.568101 6.15501 0.53923 6.15501 0.484283C6.22277 0.459311 6.29257 0.440302 6.36363 0.427473C7.15618 0.346448 7.83883 0.629567 8.46188 1.08498C8.98313 1.45044 9.41618 1.92772 9.72939 2.48195C9.767 2.54063 9.80903 2.59636 9.85512 2.64865C10.2835 1.72479 10.8451 0.879159 11.4188 0C11.9999 0.691966 12.3501 1.48358 12.7226 2.26123C12.9741 1.97345 13.1883 1.69685 13.4379 1.45005C13.9296 0.942488 14.5414 0.567088 15.2167 0.358556C15.3609 0.309124 15.5138 0.290301 15.6656 0.30329C15.8175 0.316279 15.965 0.360794 16.0986 0.433992C15.7261 1.1511 15.4737 1.89336 15.7261 2.72968C15.9868 2.28931 16.3185 1.89502 16.7077 1.56274C17.2833 1.0589 17.9287 0.708729 18.711 0.624911C18.9755 0.585509 19.2448 0.591492 19.5072 0.642606C19.5988 0.669735 19.6884 0.703028 19.7755 0.742256C19.7755 0.897785 19.6823 0.988123 19.5985 1.08312C19.1907 1.52642 18.9234 2.08058 18.8302 2.67566C18.7808 3.14375 18.7808 3.61572 18.8302 4.08381C18.8848 4.67844 18.8817 5.27697 18.8209 5.871C18.7277 6.64957 18.4316 7.33875 18.0199 7.98601C17.8661 8.20717 17.6964 8.41695 17.5124 8.61371C17.4062 8.73758 17.2842 8.84747 17.1538 8.97972C17.2907 9.12128 17.4081 9.24887 17.5319 9.36994C17.705 9.54713 17.8327 9.7634 17.9045 10.0004C17.9482 10.1223 17.9643 10.2523 17.9518 10.3811C17.9392 10.51 17.8983 10.6344 17.8318 10.7455C17.7908 10.7278 17.7499 10.7231 17.7294 10.7008C17.4314 10.3627 16.9974 10.4372 16.6304 10.6486C16.4133 10.7874 16.206 10.9412 16.0102 11.1087C15.6379 11.4152 15.1896 11.615 14.7128 11.687C14.2995 11.7472 13.8777 11.7063 13.4835 11.5678C13.3724 11.5351 13.2535 11.5401 13.1454 11.5818C12.7347 11.7448 12.3687 11.9646 12.1722 12.3958C12.0835 12.5602 12.0335 12.7427 12.026 12.9294C12.026 13.1064 12.026 13.2824 12.026 13.4593C12.0273 14.1986 11.9296 14.9346 11.7354 15.6479C11.6629 15.8731 11.579 16.0944 11.484 16.311C11.6973 16.311 11.9077 16.3259 12.1154 16.311C12.3231 16.2961 12.3287 16.2775 12.4879 16.4526C12.378 16.8149 12.3557 16.8335 12.0148 16.8344C11.7801 16.8344 11.5445 16.84 11.3089 16.8344C10.9625 16.8242 10.7995 16.5252 10.9727 16.2281C11.192 15.8403 11.3272 15.4107 11.3694 14.9671C11.4262 14.4679 11.4626 13.9669 11.5054 13.4659C11.5157 13.3355 11.5557 13.179 11.3629 13.0989C11.2698 13.2191 11.3126 13.3504 11.307 13.4714C11.28 14.1113 11.2623 14.7529 11.0984 15.3769C10.9708 15.8621 10.7585 16.297 10.3627 16.6295C10.1359 16.8175 9.86105 16.9382 9.56921 16.9778C9.24815 17.0388 8.91865 17.0407 8.59692 16.9834C8.44806 16.957 8.30378 16.9094 8.16851 16.8419C8.02882 16.7655 8.02043 16.6435 8.12381 16.5159C8.28586 16.3157 8.4805 16.1713 8.7571 16.1955C8.96572 16.2132 9.17526 16.2346 9.38388 16.2542C9.44255 16.2598 9.50122 16.2654 9.55989 16.2663C9.74616 16.2663 9.93242 16.2663 10.1187 16.2663C10.5257 15.7117 10.7641 15.0513 10.8051 14.3646C10.8358 14.0645 10.8358 13.7622 10.8051 13.4621C10.7548 13.0756 10.6831 12.6957 10.4409 12.3799C10.3164 12.2256 10.1738 12.0868 10.0162 11.9664C9.88958 11.864 9.73032 11.8035 9.59994 11.7047C9.35035 11.5185 9.111 11.4402 8.79249 11.5762C8.61089 11.6535 8.37061 11.6395 8.16665 11.6079C7.77457 11.5473 7.38621 11.4673 7.04907 11.2298C6.7775 11.0452 6.49477 10.8775 6.20251 10.7278C6.04637 10.6469 5.87754 10.5934 5.70333 10.5695C5.56477 10.5642 5.42637 10.5835 5.29448 10.6263C5.20634 10.6553 5.12095 10.6921 5.0393 10.7362ZM11.416 1.06728C10.9121 1.78619 10.4671 2.54457 10.0852 3.33503C9.75999 3.98529 9.50613 4.66881 9.328 5.37368C9.16781 6.04888 9.0486 6.72408 9.19296 7.42256C9.34849 8.16203 9.68096 8.79346 10.3217 9.21627C10.9084 9.60463 11.5576 9.69031 12.1955 9.37832C12.9583 9.0058 13.3354 8.32501 13.4919 7.5157C13.5711 7.10126 13.5478 6.6859 13.5161 6.26122C13.4603 5.6077 13.3227 4.96377 13.1063 4.34457C12.7442 3.26408 12.2359 2.2382 11.5957 1.29546C11.5455 1.22002 11.4849 1.1539 11.416 1.06728ZM3.45141 1.22747C3.60601 1.56367 3.7783 1.87939 3.90403 2.22304C4.22254 3.07892 4.29891 3.9795 4.30822 4.88101C4.31567 5.62606 4.45909 6.32268 4.82789 6.96995C5.15478 7.5455 5.53103 8.08193 6.12614 8.41721C6.57317 8.67052 7.04349 8.78228 7.57061 8.57832C7.46071 8.43583 7.36013 8.32221 7.27725 8.19742C6.98009 7.73298 6.75671 7.22528 6.61508 6.69242C6.44279 6.08706 6.40926 5.46774 6.39902 4.85214C6.3897 4.36693 6.50798 3.87985 6.55827 3.39277C6.57243 3.29038 6.55211 3.18619 6.50053 3.09662C5.93988 2.33015 5.24698 1.72945 4.35665 1.38673C4.07171 1.26289 3.7615 1.20832 3.45141 1.22747ZM15.1599 8.96482C15.1748 8.98158 15.1887 9.01045 15.2064 9.01418C15.6861 9.11476 16.1378 9.06354 16.5531 8.78135C17.1724 8.3576 17.5776 7.75691 17.8812 7.08916C18.091 6.66814 18.2139 6.2092 18.2425 5.73968C18.2537 5.38951 18.2937 5.0384 18.2798 4.68916C18.2621 4.21047 18.1643 3.7327 18.1773 3.2568C18.1904 2.7809 18.2565 2.32549 18.4875 1.89895C18.6216 1.65401 18.7669 1.4156 18.927 1.14179C18.8046 1.14077 18.6823 1.14856 18.561 1.16507C17.9616 1.29369 17.41 1.58722 16.9685 2.01257C16.564 2.40559 16.2273 2.86283 15.972 3.36577C15.9489 3.41167 15.9356 3.46183 15.9329 3.51312C15.9302 3.56441 15.9381 3.6157 15.9562 3.66379C16.1722 4.55412 16.3138 5.45377 16.2626 6.37577C16.2347 7.04666 16.0315 7.69853 15.673 8.26633C15.5203 8.50941 15.334 8.73292 15.1599 8.96482ZM15.3247 1.11385C15.0947 1.06915 15.0956 1.07194 14.9745 1.11385C14.1503 1.38207 13.5776 1.95203 13.1305 2.66635C13.0523 2.79115 13.0765 2.90383 13.1361 3.03142C13.2917 3.36018 13.4416 3.69172 13.5785 4.02886C13.8721 4.77037 14.0566 5.55056 14.1261 6.34504C14.1531 6.68437 14.1438 7.02562 14.0982 7.36296C14.0246 7.98228 13.7257 8.51965 13.4165 9.04771C13.3708 9.12501 13.3354 9.20882 13.2889 9.30195C13.5087 9.37739 13.6903 9.28426 13.8477 9.22C14.9513 8.78228 15.5827 7.93572 15.7317 6.78462C15.8302 6.06022 15.7936 5.32384 15.6237 4.61279C15.5305 4.24958 15.4374 3.8873 15.3564 3.52223C15.2698 3.1348 15.1804 2.74551 15.1264 2.3525C15.0742 1.92502 15.1971 1.51618 15.3266 1.11385H15.3247ZM9.39412 9.12314C8.96546 8.4918 8.70604 7.76099 8.64069 7.00068C8.6025 6.67335 8.6025 6.34268 8.64069 6.01535C8.72641 5.38943 8.88262 4.77521 9.10634 4.18439C9.21903 3.89009 9.34197 3.59952 9.45652 3.31547C9.08346 2.61641 8.58607 1.99121 7.98877 1.47054C7.69224 1.2106 7.33571 1.0285 6.95129 0.940626C7.35734 1.56647 7.44023 2.21839 7.2996 2.91035C7.21392 3.33317 7.1273 3.75692 7.06025 4.18346C6.93322 4.96136 6.96778 5.75709 7.16176 6.52105C7.36006 7.34953 7.81667 8.09349 8.4656 8.64538C8.73106 8.87893 9.051 9.04195 9.39598 9.11942L9.39412 9.12314ZM13.0262 9.77506C12.5308 9.92873 12.0512 10.0656 11.5361 10.061C11.0203 10.0664 10.5069 9.99093 10.0144 9.83746C9.8961 9.79741 9.79272 9.77692 9.69866 9.88775C9.56122 10.0586 9.48786 10.2721 9.49126 10.4913C9.49466 10.7106 9.57462 10.9217 9.71729 11.0882C9.81381 11.1902 9.92453 11.2777 10.046 11.348C10.3975 11.5402 10.6982 11.8131 10.9233 12.1443C10.9628 12.2027 11.0108 12.2548 11.0658 12.2989C11.321 12.5141 11.5548 12.4796 11.7466 12.2002C11.7927 12.133 11.8335 12.0623 11.8686 11.9888C11.9681 11.7629 12.135 11.5733 12.3464 11.4458C12.4879 11.3657 12.6388 11.2996 12.7878 11.2335C13.4323 10.9485 13.5571 10.2463 13.0272 9.78065L13.0262 9.77506ZM5.5925 10.0973C5.72163 10.075 5.85272 10.0663 5.98365 10.0712C6.32247 10.1202 6.64154 10.2606 6.90658 10.4773C6.99421 10.5545 7.08761 10.6248 7.18598 10.6877C7.73359 11.0174 8.30355 11.2121 8.95547 10.9969C8.93778 10.7399 8.87445 10.4884 8.91729 10.2566C8.96013 10.0247 9.111 9.80207 9.20413 9.59625C8.89307 9.464 8.58947 9.342 8.29145 9.2051C8.23018 9.17211 8.16289 9.15181 8.09361 9.14541C8.02432 9.13901 7.95446 9.14664 7.88819 9.16785C7.52074 9.29861 7.12282 9.31773 6.74453 9.22279C6.66588 9.20167 6.58236 9.20825 6.50798 9.24142C6.12505 9.43021 5.80676 9.72841 5.59343 10.0982L5.5925 10.0973ZM17.2218 10.0181C17.0532 9.49474 16.7832 9.33362 16.3017 9.45935C16.1089 9.50777 15.918 9.56552 15.7233 9.6037C15.3797 9.67075 15.0416 9.72663 14.6812 9.6484C14.3673 9.57949 14.0293 9.56738 13.7014 9.76016C13.9417 10.1932 13.8877 10.6347 13.7247 11.0714C13.7711 11.1016 13.8212 11.1257 13.8737 11.1432C14.5359 11.2419 15.1627 11.186 15.6907 10.712C16.1275 10.3199 16.6034 10.0135 17.2227 10.0191L17.2218 10.0181ZM9.572 16.4991C9.23766 16.6137 8.92846 16.4833 8.58947 16.6249C9.09237 16.7255 9.30751 16.7003 9.572 16.4991Z" fill="var(--fill-0, white)"/>
<path id="Vector_2" d="M8.34385 17.5816C8.4109 17.333 8.58226 17.3237 8.74338 17.3022C8.78816 17.2935 8.83435 17.2951 8.87842 17.3069C9.27889 17.4494 9.66073 17.332 10.0379 17.2138C10.1041 17.1913 10.1748 17.1849 10.244 17.1953C10.3132 17.2057 10.3789 17.2324 10.4356 17.2734C10.5678 17.36 10.5753 17.5146 10.4356 17.5835C10.2679 17.6624 10.0897 17.717 9.9066 17.7455C9.49267 17.8136 9.06833 17.7777 8.67167 17.6412C8.5639 17.6138 8.45437 17.5939 8.34385 17.5816V17.5816Z" fill="var(--fill-0, white)"/>
<path id="Vector_3" d="M13.8858 17.8576C13.8364 17.9579 13.7584 18.0413 13.6615 18.0972C13.5647 18.1531 13.4534 18.1789 13.3419 18.1715C12.9237 18.1668 12.4879 18.2758 12.0893 18.0737C12.0765 18.0033 12.092 17.9308 12.1325 17.8718C12.1729 17.8128 12.2351 17.7723 12.3053 17.7589C12.7282 17.67 13.1621 17.6449 13.5924 17.6844C13.6883 17.69 13.7787 17.7915 13.8858 17.8576Z" fill="var(--fill-0, white)"/>
<path id="Vector_4" d="M11.6591 17.1115C11.822 17.1025 11.9854 17.1047 12.148 17.118C12.1918 17.1257 12.2331 17.1432 12.269 17.1694C12.3048 17.1956 12.3342 17.2296 12.3548 17.2689C12.3706 17.3294 12.2924 17.4282 12.2347 17.4906C12.186 17.5433 12.1198 17.5764 12.0484 17.5837C11.7355 17.5977 11.4207 17.6088 11.1078 17.5958C11.0481 17.5926 10.9917 17.5673 10.9497 17.5247C10.9076 17.4822 10.883 17.4255 10.8805 17.3658C10.8879 17.3017 10.9168 17.2421 10.9625 17.1966C11.0082 17.1511 11.0679 17.1224 11.132 17.1152C11.308 17.1003 11.484 17.1115 11.6591 17.1115Z" fill="var(--fill-0, white)"/>
<path id="Vector_5" d="M9.72659 17.9793C9.77781 18.1125 9.77129 18.1991 9.66978 18.2531C9.59405 18.3076 9.50875 18.3474 9.41832 18.3705C9.09515 18.403 8.7664 18.4347 8.45068 18.323C8.35755 18.2885 8.2728 18.2438 8.27094 18.1367C8.26907 18.0296 8.35103 17.9784 8.45068 17.9504C8.8705 17.8422 9.31209 17.8521 9.72659 17.9793Z" fill="var(--fill-0, white)"/>
<path id="Vector_6" d="M12.8083 17.3608C12.8605 17.114 12.9648 16.9939 13.192 16.979C13.4714 16.9613 13.7508 16.979 14.0302 16.979C14.0418 16.9791 14.0534 16.9806 14.0647 16.9836C14.2509 17.0274 14.3599 17.1364 14.344 17.2491C14.3282 17.3617 14.2118 17.4251 14.0134 17.4204C13.666 17.413 13.3177 17.412 12.9704 17.4046C12.9149 17.3961 12.8605 17.3814 12.8083 17.3608Z" fill="var(--fill-0, white)"/>
<path id="Vector_7" d="M14.0601 16.4621C14.021 16.6269 13.9428 16.7023 13.7854 16.6977C13.5405 16.6893 13.2955 16.6977 13.0506 16.6977C12.9853 16.7016 12.9201 16.6883 12.8615 16.659C12.803 16.6298 12.7532 16.5856 12.7172 16.531C12.7647 16.2935 12.9547 16.2041 13.1475 16.2022C13.466 16.1957 13.8404 16.0532 14.0601 16.4621Z" fill="var(--fill-0, white)"/>
<path id="Vector_8" d="M11.9237 17.9091C11.8771 18.1419 11.6853 18.154 11.5391 18.1699C11.2827 18.1877 11.0256 18.1912 10.7689 18.1801C10.701 18.1811 10.6348 18.1599 10.5801 18.1197C10.5255 18.0795 10.4855 18.0226 10.4662 17.9575C10.6375 17.6781 10.9551 17.7098 11.2056 17.6921C11.4562 17.6744 11.7421 17.6716 11.9237 17.9091Z" fill="var(--fill-0, white)"/>
</g>
<path id="Rectangle 6" d="M18.2933 6.96005H49.6533C53.3647 6.96005 56.3733 9.9687 56.3733 13.6801C56.3733 17.3914 53.3647 20.4001 49.6533 20.4001H7.09333C3.38198 20.4001 0.373333 17.3914 0.373333 13.6801C0.373333 10.8956 2.06682 8.50671 4.48 7.48713" stroke="var(--stroke-0, white)" stroke-width="0.746667"/>
</g>
</svg>
