<svg preserveAspectRatio="none" width="100%" height="100%" overflow="visible" style="display: block;" viewBox="0 0 106.055 38.8238" fill="none" xmlns="http://www.w3.org/2000/svg">
<g id="Group 37314">
<rect id="Rectangle 4" x="41.166" y="21.381" width="8.37276" height="8.37276" rx="4.18638" fill="var(--fill-0, #E11D22)"/>
<rect id="Rectangle 5" x="53.7253" y="18.5904" width="46.0502" height="13.9546" rx="6.9773" fill="var(--fill-0, #057DC0)"/>
<g id="Group 37313">
<path id="Vector" d="M9.41796 20.0651C9.08029 19.6961 9.09769 19.3567 9.23346 18.972C9.53457 18.1243 10.1385 17.543 10.8452 17.0417L11.0906 16.8677C11.0059 16.7952 10.9157 16.7294 10.8208 16.671C9.84613 16.1819 9.14991 15.4039 8.56857 14.511C7.69829 13.1638 7.25967 11.653 7.01948 10.0882C6.91132 9.35129 6.86301 8.6068 6.87501 7.86206C6.89068 5.64808 6.3337 3.62034 5.02481 1.81713C4.97649 1.74491 4.93344 1.66929 4.89601 1.59086C4.88556 1.57346 4.89601 1.54909 4.88382 1.48295C5.23193 1.13484 5.72451 1.08784 6.19272 1.09307C6.6299 1.105 7.06457 1.16335 7.48943 1.26712C9.1402 1.64973 10.6246 2.55208 11.7242 3.84139C12.0131 4.16862 12.3073 4.49236 12.6206 4.84221C12.8105 4.43342 12.8523 3.97131 12.7389 3.53506C12.5542 2.74161 12.1978 1.99833 11.6946 1.35763C11.6302 1.2706 11.5606 1.18357 11.5031 1.09307C11.484 1.06174 11.5031 1.00778 11.5031 0.905086C11.6298 0.858415 11.7602 0.822889 11.893 0.798912C13.3742 0.647484 14.65 1.17661 15.8145 2.02774C16.7887 2.71077 17.598 3.60275 18.1834 4.63856C18.2537 4.74824 18.3322 4.85239 18.4183 4.95012C19.219 3.2235 20.2685 1.64308 21.3407 0C22.4268 1.29323 23.0813 2.7727 23.7775 4.22606C24.2474 3.68823 24.6478 3.17128 25.1142 2.71004C26.0333 1.76144 27.1767 1.05984 28.4387 0.670112C28.7081 0.577728 28.9939 0.54255 29.2777 0.566825C29.5615 0.591101 29.8371 0.674295 30.087 0.811096C29.3908 2.15132 28.9191 3.53854 29.3908 5.10155C29.878 4.27853 30.4979 3.54164 31.2253 2.92064C32.301 1.97901 33.5072 1.32456 34.9692 1.16791C35.4636 1.09427 35.9668 1.10545 36.4574 1.20098C36.6285 1.25168 36.796 1.3139 36.9587 1.38722C36.9587 1.67789 36.7846 1.84672 36.628 2.02426C35.8658 2.85276 35.3662 3.88843 35.192 5.0006C35.0998 5.87541 35.0998 6.7575 35.192 7.63231C35.2941 8.74363 35.2883 9.86223 35.1746 10.9724C35.0006 12.4275 34.4471 13.7155 33.6777 14.9252C33.3902 15.3386 33.0731 15.7306 32.7291 16.0983C32.5307 16.3298 32.3027 16.5352 32.059 16.7824C32.3149 17.0469 32.5342 17.2854 32.7657 17.5117C33.0891 17.8428 33.3279 18.247 33.4619 18.69C33.5436 18.9177 33.5738 19.1607 33.5504 19.4015C33.5269 19.6423 33.4503 19.8748 33.3261 20.0825C33.2496 20.0494 33.173 20.0407 33.1347 19.9989C32.5777 19.3671 31.7666 19.5063 31.0808 19.9014C30.675 20.1609 30.2877 20.4482 29.9216 20.7613C29.2259 21.334 28.3881 21.7076 27.497 21.8422C26.7245 21.9545 25.9361 21.8781 25.1995 21.6194C24.9918 21.5583 24.7697 21.5675 24.5677 21.6455C23.8001 21.9501 23.1161 22.3608 22.7488 23.1667C22.583 23.474 22.4896 23.8151 22.4756 24.1641C22.4756 24.4948 22.4756 24.8237 22.4756 25.1544C22.478 26.536 22.2953 27.9116 21.9325 29.2447C21.797 29.6655 21.6401 30.0791 21.4626 30.484C21.8611 30.484 22.2545 30.5118 22.6427 30.484C23.0308 30.4561 23.0412 30.4213 23.3389 30.7486C23.1335 31.4256 23.0917 31.4604 22.4547 31.4622C22.0161 31.4622 21.5757 31.4726 21.1353 31.4622C20.4879 31.443 20.1833 30.8843 20.507 30.3291C20.9169 29.6043 21.1695 28.8013 21.2485 27.9724C21.3546 27.0394 21.4225 26.103 21.5026 25.1666C21.5217 24.9229 21.5966 24.6305 21.2363 24.4808C21.0622 24.7054 21.1423 24.9508 21.1319 25.1771C21.0814 26.3728 21.0483 27.572 20.742 28.7382C20.5035 29.645 20.1067 30.4579 19.3669 31.0793C18.9432 31.4306 18.4294 31.6561 17.884 31.7302C17.284 31.8442 16.6682 31.8478 16.0669 31.7407C15.7887 31.6913 15.519 31.6022 15.2662 31.4761C15.0051 31.3334 14.9895 31.1054 15.1827 30.8669C15.4855 30.4927 15.8493 30.2229 16.3662 30.2682C16.7561 30.3012 17.1477 30.3413 17.5376 30.3778C17.6473 30.3883 17.7569 30.3987 17.8666 30.4004C18.2147 30.4004 18.5628 30.4004 18.9109 30.4004C19.6716 29.3638 20.1171 28.1297 20.1937 26.8462C20.2511 26.2855 20.2511 25.7204 20.1937 25.1596C20.0997 24.4373 19.9657 23.7272 19.5131 23.1371C19.2804 22.8487 19.014 22.5893 18.7195 22.3643C18.4827 22.1729 18.1851 22.0597 17.9414 21.8752C17.475 21.5271 17.0276 21.3809 16.4324 21.635C16.093 21.7795 15.6439 21.7534 15.2627 21.6942C14.53 21.5811 13.8041 21.4314 13.1741 20.9875C12.6665 20.6425 12.1381 20.3292 11.5919 20.0494C11.3001 19.8982 10.9846 19.7982 10.659 19.7535C10.4 19.7437 10.1414 19.7797 9.89487 19.8597C9.73014 19.9139 9.57055 19.9826 9.41796 20.0651ZM21.3355 1.99467C20.3938 3.33825 19.562 4.75559 18.8483 6.23291C18.2406 7.44819 17.7661 8.72564 17.4332 10.043C17.1338 11.3049 16.911 12.5668 17.1808 13.8722C17.4715 15.2542 18.0929 16.4343 19.2904 17.2245C20.3869 17.9503 21.6001 18.1104 22.7923 17.5273C24.2179 16.8311 24.9228 15.5588 25.2152 14.0462C25.3631 13.2717 25.3196 12.4954 25.2604 11.7017C25.1562 10.4803 24.8989 9.27689 24.4946 8.11966C23.8178 6.1003 22.8679 4.18301 21.6714 2.4211C21.5774 2.28012 21.4643 2.15654 21.3355 1.99467ZM6.45032 2.29405C6.73925 2.92238 7.06125 3.51243 7.29623 4.15469C7.89149 5.75426 8.03422 7.43737 8.05162 9.12222C8.06555 10.5147 8.33359 11.8166 9.02285 13.0263C9.63378 14.1019 10.337 15.1045 11.4492 15.7311C12.2846 16.2045 13.1636 16.4134 14.1488 16.0322C13.9434 15.7659 13.7554 15.5536 13.6005 15.3203C13.0451 14.4523 12.6277 13.5035 12.363 12.5076C12.041 11.3762 11.9783 10.2188 11.9592 9.06826C11.9418 8.16144 12.1628 7.25113 12.2568 6.34082C12.2832 6.14946 12.2453 5.95474 12.1489 5.78733C11.1011 4.35486 9.8061 3.2322 8.14213 2.59168C7.60961 2.36025 7.02985 2.25825 6.45032 2.29405ZM28.3325 16.7545C28.3604 16.7859 28.3865 16.8398 28.4195 16.8468C29.3159 17.0348 30.1601 16.939 30.9364 16.4116C32.0938 15.6197 32.851 14.497 33.4184 13.2491C33.8105 12.4622 34.0402 11.6045 34.0937 10.727C34.1146 10.0726 34.1895 9.41637 34.1634 8.76367C34.1303 7.86903 33.9475 6.97612 33.9719 6.0867C33.9963 5.19728 34.1198 4.34615 34.5515 3.54898C34.8021 3.09122 35.0737 2.64564 35.373 2.13391C35.1443 2.13202 34.9157 2.14656 34.689 2.17743C33.5687 2.4178 32.5378 2.96638 31.7127 3.76133C30.9566 4.49586 30.3274 5.35041 29.8503 6.29035C29.8072 6.37613 29.7824 6.46989 29.7773 6.56574C29.7722 6.66159 29.787 6.75746 29.8207 6.84732C30.2245 8.51129 30.4891 10.1927 30.3933 11.9158C30.3413 13.1697 29.9614 14.3879 29.2916 15.4491C29.0061 15.9034 28.658 16.3211 28.3325 16.7545ZM28.6406 2.0817C28.2107 1.99815 28.2124 2.00337 27.9861 2.0817C26.4458 2.58298 25.3753 3.64819 24.5399 4.98319C24.3936 5.21643 24.4389 5.42703 24.5503 5.66549C24.841 6.2799 25.1212 6.89954 25.3771 7.52962C25.9258 8.91544 26.2705 10.3735 26.4005 11.8584C26.451 12.4926 26.4335 13.1303 26.3483 13.7608C26.2108 14.9183 25.6521 15.9225 25.0742 16.9094C24.9889 17.0539 24.9228 17.2106 24.8357 17.3846C25.2465 17.5256 25.5859 17.3515 25.8801 17.2314C27.9426 16.4134 29.1227 14.8312 29.4012 12.6799C29.5853 11.3261 29.5169 9.94983 29.1993 8.62094C29.0252 7.94213 28.8512 7.26505 28.6998 6.58276C28.5379 5.85869 28.3708 5.13114 28.2699 4.39663C28.1724 3.59772 28.4021 2.83362 28.6441 2.0817H28.6406ZM17.5568 17.0504C16.7556 15.8705 16.2708 14.5047 16.1487 13.0837C16.0773 12.472 16.0773 11.854 16.1487 11.2422C16.3089 10.0724 16.6008 8.92449 17.0189 7.82029C17.2295 7.27028 17.4593 6.72722 17.6734 6.19636C16.9762 4.88986 16.0466 3.72141 14.9303 2.74833C14.3761 2.26252 13.7098 1.92218 12.9913 1.75796C13.7502 2.9276 13.9051 4.14599 13.6423 5.43922C13.4821 6.22943 13.3203 7.02138 13.1949 7.81855C12.9575 9.27239 13.0221 10.7595 13.3847 12.1873C13.7553 13.7357 14.6086 15.1261 15.8214 16.1575C16.3176 16.594 16.9155 16.8987 17.5602 17.0435L17.5568 17.0504ZM24.3449 18.2688C23.4189 18.556 22.5226 18.8119 21.56 18.8032C20.596 18.8132 19.6364 18.6723 18.716 18.3854C18.4949 18.3106 18.3017 18.2723 18.1259 18.4794C17.8691 18.7987 17.732 19.1978 17.7383 19.6075C17.7447 20.0172 17.8941 20.4118 18.1607 20.723C18.3411 20.9136 18.5481 21.0771 18.7752 21.2086C19.4319 21.5676 19.9939 22.0777 20.4147 22.6968C20.4885 22.8059 20.5783 22.9033 20.6811 22.9857C21.158 23.3878 21.5948 23.3234 21.9534 22.8012C22.0395 22.6756 22.1157 22.5435 22.1814 22.4061C22.3674 21.9839 22.6792 21.6295 23.0743 21.3914C23.3389 21.2417 23.6208 21.1181 23.8993 20.9945C25.1038 20.4619 25.337 19.1495 24.3467 18.2793L24.3449 18.2688ZM10.4518 18.871C10.6932 18.8295 10.9382 18.8131 11.1829 18.8223C11.8161 18.9139 12.4124 19.1762 12.9078 19.5812C13.0715 19.7254 13.2461 19.8569 13.4299 19.9745C14.4534 20.5907 15.5186 20.9545 16.737 20.5524C16.7039 20.072 16.5855 19.6021 16.6656 19.1687C16.7457 18.7353 17.0276 18.3193 17.2017 17.9346C16.6204 17.6875 16.0529 17.4595 15.496 17.2036C15.3815 17.1419 15.2557 17.104 15.1262 17.092C14.9967 17.0801 14.8662 17.0943 14.7423 17.134C14.0556 17.3784 13.3119 17.4141 12.6049 17.2367C12.4579 17.1972 12.3018 17.2095 12.1628 17.2715C11.4471 17.6243 10.8523 18.1816 10.4536 18.8728L10.4518 18.871ZM32.1861 18.7231C31.871 17.7449 31.3663 17.4438 30.4664 17.6788C30.1061 17.7693 29.7493 17.8772 29.3855 17.9485C28.7433 18.0739 28.1115 18.1783 27.4379 18.0321C26.8513 17.9033 26.2195 17.8807 25.6068 18.241C26.0559 19.0503 25.9549 19.8753 25.6503 20.6917C25.7371 20.748 25.8307 20.793 25.9288 20.8257C27.1663 21.0102 28.3377 20.9057 29.3246 20.0198C30.1409 19.287 31.0304 18.7144 32.1878 18.7248L32.1861 18.7231ZM17.8892 30.8356C17.2644 31.0497 16.6865 30.806 16.0529 31.0706C16.9928 31.2585 17.3949 31.2115 17.8892 30.8356Z" fill="var(--fill-0, #090909)"/>
<path id="Vector_2" d="M15.5937 32.8587C15.719 32.394 16.0393 32.3766 16.3404 32.3365C16.4241 32.3202 16.5104 32.3232 16.5928 32.3452C17.3412 32.6116 18.0549 32.3922 18.7598 32.1712C18.8836 32.1292 19.0156 32.1173 19.1449 32.1367C19.2742 32.1561 19.397 32.2061 19.503 32.2826C19.7502 32.4445 19.7641 32.7334 19.503 32.8622C19.1896 33.0097 18.8567 33.1117 18.5144 33.1651C17.7408 33.2922 16.9477 33.2252 16.2064 32.9701C16.005 32.9189 15.8003 32.8816 15.5937 32.8587V32.8587Z" fill="var(--fill-0, #090909)"/>
<path id="Vector_3" d="M25.9512 33.3746C25.859 33.562 25.7131 33.7178 25.5321 33.8223C25.3511 33.9267 25.1432 33.975 24.9348 33.9611C24.1532 33.9524 23.3387 34.1561 22.5937 33.7784C22.5698 33.6469 22.5988 33.5112 22.6744 33.401C22.7501 33.2908 22.8662 33.215 22.9975 33.1901C23.7879 33.0238 24.5987 32.9769 25.403 33.0508C25.5822 33.0613 25.7511 33.251 25.9512 33.3746Z" fill="var(--fill-0, #090909)"/>
<path id="Vector_4" d="M21.7898 31.9801C22.0943 31.9632 22.3996 31.9673 22.7035 31.9923C22.7853 32.0066 22.8626 32.0394 22.9296 32.0883C22.9966 32.1372 23.0514 32.2008 23.09 32.2743C23.1195 32.3874 22.9733 32.5719 22.8654 32.6885C22.7745 32.787 22.6507 32.8489 22.5173 32.8626C21.9325 32.8887 21.3442 32.9096 20.7593 32.8852C20.6478 32.8792 20.5424 32.8319 20.4639 32.7524C20.3853 32.6729 20.3393 32.5669 20.3346 32.4553C20.3485 32.3356 20.4025 32.2241 20.4878 32.1391C20.5732 32.054 20.6849 32.0005 20.8046 31.9871C21.1336 31.9592 21.4625 31.9801 21.7898 31.9801Z" fill="var(--fill-0, #090909)"/>
<path id="Vector_5" d="M18.178 33.602C18.2738 33.8509 18.2616 34.0127 18.0719 34.1137C17.9303 34.2156 17.7709 34.29 17.6019 34.333C16.9979 34.3939 16.3835 34.4531 15.7935 34.2442C15.6194 34.1798 15.461 34.0963 15.4575 33.8961C15.4541 33.696 15.6072 33.6002 15.7935 33.548C16.5781 33.3457 17.4034 33.3643 18.178 33.602Z" fill="var(--fill-0, #090909)"/>
<path id="Vector_6" d="M23.9375 32.4461C24.035 31.9848 24.2299 31.7603 24.6546 31.7324C25.1768 31.6994 25.699 31.7324 26.2211 31.7324C26.2429 31.7326 26.2645 31.7356 26.2855 31.7411C26.6336 31.8229 26.8373 32.0266 26.8077 32.2372C26.7781 32.4478 26.5605 32.5662 26.1898 32.5575C25.5406 32.5435 24.8896 32.5418 24.2404 32.5279C24.1367 32.5119 24.0351 32.4845 23.9375 32.4461Z" fill="var(--fill-0, #090909)"/>
<path id="Vector_7" d="M26.2772 30.7663C26.2041 31.0744 26.0579 31.2154 25.7637 31.2067C25.306 31.191 24.8482 31.2067 24.3904 31.2067C24.2684 31.214 24.1465 31.1891 24.0371 31.1344C23.9277 31.0797 23.8347 30.9972 23.7673 30.8951C23.8561 30.4513 24.2112 30.2842 24.5715 30.2807C25.1667 30.2685 25.8664 30.0022 26.2772 30.7663Z" fill="var(--fill-0, #090909)"/>
<path id="Vector_8" d="M22.2842 33.4708C22.1972 33.9059 21.8387 33.9286 21.5654 33.9582C21.0863 33.9915 20.6057 33.9979 20.126 33.9773C19.9992 33.9791 19.8753 33.9395 19.7732 33.8644C19.6711 33.7893 19.5963 33.6828 19.5603 33.5613C19.8805 33.0391 20.4741 33.0983 20.9423 33.0652C21.4105 33.0322 21.9448 33.027 22.2842 33.4708Z" fill="var(--fill-0, #090909)"/>
</g>
<path id="Rectangle 6" d="M34.1888 13.0077H92.7981C99.7343 13.0077 105.357 18.6307 105.357 25.5669C105.357 32.5031 99.7343 38.126 92.7981 38.126H13.2569C6.32065 38.126 0.69773 32.5031 0.69773 25.5669C0.69773 20.363 3.86272 15.8983 8.37276 13.9928" stroke="var(--stroke-0, black)" stroke-width="1.39546"/>
</g>
</svg>
