<svg preserveAspectRatio="none" width="100%" height="100%" overflow="visible" style="display: block;" viewBox="0 0 16 16.7762" fill="none" xmlns="http://www.w3.org/2000/svg">
<g id="Group 37313">
<path id="Vector" d="M8.19384 0C8.50258 0.288455 9.20617 1.67745 9.39946 2.12239C10.1628 1.19637 11.1559 0.0942921 12.4876 0.327009C12.0432 1.22856 11.9938 1.58722 12.1477 2.55917C12.8909 1.3802 14.5378 0.0742706 16 0.676615C14.4137 2.34362 15.2731 3.33694 15.0271 5.3651C14.9077 6.34885 14.2874 7.61819 13.4776 8.22382C14.018 8.70303 14.3189 9.08857 14.186 9.84993C14.0981 9.79984 13.8917 9.65085 13.809 9.62922C13.1261 9.45094 12.4699 10.2387 11.8997 10.5041C11.2731 10.7956 10.6131 10.7752 9.98892 10.5607C8.93771 10.8267 8.71114 11.3746 8.69024 12.3821C8.67344 13.1926 8.56747 14.445 8.10943 15.1182C8.34666 15.1023 8.85793 15.0438 9.09136 15.111C9.13641 15.124 9.13974 15.1588 9.15438 15.1998C9.08547 15.6479 8.38486 15.6372 8.06514 15.5208C7.89861 15.4601 7.80892 15.3303 7.69919 15.2005C7.88471 14.8333 8.05582 14.4923 8.13624 14.0851C8.2663 13.4266 8.28528 12.7584 8.26717 12.0897C8.18552 12.0499 8.09932 11.9984 8.01966 11.953C8.01869 12.5369 8.03178 13.1551 7.93624 13.7286C7.77257 15.0478 7.02442 15.822 5.67606 15.6265C5.46949 15.5966 5.29457 15.6157 5.12591 15.4607C5.03152 15.2363 5.44034 14.9626 5.58404 14.9539C6.03846 14.9266 6.51602 15.0441 6.98053 15.0724C7.65168 14.1872 7.80282 13.1667 7.63012 12.0835C7.54507 11.5499 7.2475 11.0929 6.76757 10.8366C6.57393 10.7332 6.33809 10.6201 6.15856 10.4989C5.35773 10.6991 4.83308 10.6917 4.10605 10.2365C3.42468 9.80991 3.02408 9.50911 2.21365 9.83102C2.07904 9.15539 2.629 8.534 3.19612 8.24916C1.59874 7.55278 1.12151 5.6464 1.07383 4.05697C1.05371 3.38636 1.00036 2.77097 0.807334 2.12324C0.633854 1.54113 0.34469 1.14335 0 0.65891C0.308878 0.531691 0.566697 0.512945 0.895337 0.544266C2.22233 0.670777 3.12963 1.4814 3.94157 2.45916C4.0635 1.45055 3.89772 1.28842 3.36629 0.459335L3.38761 0.418866C3.54753 0.327883 3.91387 0.367382 4.09543 0.397001C5.2771 0.589746 6.12956 1.51983 6.79641 2.45519C7.03586 1.68199 7.81568 0.701932 8.19384 0Z" fill="var(--fill-0, black)"/>
<path id="Vector_2" d="M8.20721 0.849C8.29564 0.94809 8.71943 1.64298 8.79694 1.78391C9.59942 3.23597 10.2595 4.71744 10.216 6.41451C10.1834 7.68486 9.34193 8.83802 7.98773 8.77902C7.6937 8.71813 7.40834 8.63989 7.16397 8.46206C6.62866 8.07253 6.18167 7.4989 6.07378 6.83474C5.85906 5.51297 6.27601 4.48663 6.80297 3.33201C7.26942 2.30997 7.58147 1.76547 8.20721 0.849Z" fill="var(--fill-0, white)"/>
<path id="Vector_3" d="M0.700066 1.00251C0.910988 1.05068 1.14165 1.05836 1.35858 1.11093C2.32303 1.34467 3.22872 2.11822 3.74997 2.93955C3.72046 3.07745 3.69229 3.24606 3.67416 3.38792C3.51682 4.61773 3.56363 5.94683 4.12328 7.07583C4.2687 7.36922 4.45402 7.61168 4.64731 7.8686L4.66138 7.89905L4.6359 7.932C3.79062 8.1789 3.0495 7.69855 2.50989 7.10481C1.25804 5.7274 1.69478 4.18057 1.34888 2.53543C1.22587 1.95032 1.00904 1.51065 0.700066 1.00251Z" fill="var(--fill-0, white)"/>
<path id="Vector_4" d="M15.1914 0.942098L15.2505 0.930326C15.2519 0.95621 14.9264 1.41963 14.8763 1.51208C14.7429 1.75414 14.6472 2.015 14.5921 2.2858C14.3524 3.49059 14.8444 4.88582 14.3933 6.10833C14.0983 6.90784 13.6303 7.71315 12.8597 8.14674C12.5519 8.31984 11.9194 8.38045 11.5986 8.27497L11.5894 8.24335C12.7351 7.09988 12.8235 5.47486 12.4931 3.98051C12.4352 3.71834 12.3789 3.44799 12.3283 3.18431C12.4415 2.88269 12.7387 2.42985 12.9467 2.18813C13.5974 1.43268 14.2031 1.03563 15.1914 0.942098Z" fill="var(--fill-0, white)"/>
<path id="Vector_5" d="M11.8087 0.866906L11.8551 0.859271L11.8747 0.883878C11.8494 1.0388 11.7834 1.16597 11.7499 1.31225C11.54 2.26514 11.8995 3.18738 12.113 4.12116C12.5004 5.81652 12.3014 7.76085 10.4609 8.47646C10.3713 8.51131 9.99343 8.59038 9.91152 8.56695C9.90036 8.5014 9.91348 8.50906 9.96085 8.44042C10.5784 7.39287 10.7575 6.8708 10.659 5.65838C10.5578 4.41363 10.1784 3.66239 9.70268 2.5566C10.0054 1.75867 10.9625 1.00238 11.8087 0.866906Z" fill="var(--fill-0, white)"/>
<path id="Vector_6" d="M4.00109 0.74488C5.20169 1.17067 5.79337 1.91983 6.3813 3.03011C5.67445 4.69373 5.19535 6.43673 6.17747 8.12595C6.2402 8.24154 6.30438 8.34581 6.37307 8.45757C6.0368 8.31447 5.68301 8.15522 5.39859 7.92111C4.20832 6.94124 3.92004 5.25726 4.11389 3.80357C4.23735 3.06254 4.45834 2.37709 4.36058 1.61429C4.31153 1.23156 4.14081 1.06139 4.00109 0.74488Z" fill="var(--fill-0, white)"/>
<path id="Vector_7" d="M6.75215 8.95769C7.07904 9.13458 7.5657 9.18849 7.93088 9.2213C8.54228 9.27624 9.1486 9.15041 9.73321 8.98166C9.9531 9.1824 10.1151 9.44249 10.0366 9.75323C9.91197 10.2462 9.42561 10.3365 9.04183 10.5602C8.758 10.7638 8.66849 10.9899 8.47165 11.266C8.32295 11.4746 8.14944 11.5386 7.93902 11.3668C7.73942 11.2039 7.59612 10.9715 7.40371 10.7981C7.03928 10.4696 6.36564 10.2272 6.36588 9.65381C6.36647 9.34191 6.54997 9.15862 6.75215 8.95769Z" fill="var(--fill-0, white)"/>
<path id="Vector_8" d="M5.00618 8.35878C5.15078 8.3203 6.01134 8.72212 6.22588 8.80443C6.17527 8.85601 6.12845 8.9112 6.08578 8.96954C5.81222 9.3481 5.8742 9.75562 5.94138 10.1924C5.25325 10.2226 4.92236 10.249 4.31995 9.89372C3.64043 9.4097 3.5337 9.30222 2.70353 9.30303C3.05127 8.84925 3.2269 8.61875 3.76254 8.40913C4.21866 8.54767 4.55077 8.44948 5.00618 8.35878Z" fill="var(--fill-0, white)"/>
<path id="Vector_9" d="M13.0984 8.59932C13.3913 8.64395 13.5504 9.00781 13.675 9.24606C12.5106 9.2671 12.3881 9.93717 11.44 10.2566C11.2599 10.3173 10.9689 10.3127 10.7795 10.3097C10.6261 10.2978 10.4727 10.2851 10.3196 10.2714C10.4746 9.75971 10.4465 9.40533 10.3229 8.90329C10.9034 8.7168 11.2143 8.88315 11.753 8.8461C12.1799 8.81677 12.616 8.63693 13.0984 8.59932Z" fill="var(--fill-0, white)"/>
<path id="Vector_10" d="M7.08126 15.7838C7.20083 15.7796 7.31748 15.8141 7.34362 15.9474C7.22995 16.321 6.04502 16.1831 5.73167 16.1413C5.60552 16.1172 5.38275 16.1203 5.39427 15.9836C5.55264 15.7824 6.08733 15.9462 6.32511 15.9145C6.58009 15.8806 6.82647 15.8163 7.08126 15.7838Z" fill="var(--fill-0, black)"/>
<path id="Vector_11" d="M9.42236 16.2343C9.54521 16.2215 10.4084 16.1612 10.4432 16.3079C10.498 16.5407 10.0274 16.5742 9.86127 16.587C9.62303 16.614 8.96683 16.6565 8.81678 16.4366C8.82716 16.2506 9.28356 16.2407 9.42236 16.2343Z" fill="var(--fill-0, black)"/>
<path id="Vector_12" d="M8.13243 15.666C8.27977 15.6531 8.84765 15.6298 8.93031 15.7034C9.26164 15.9981 8.65717 16.0557 8.56051 16.0724C8.32756 16.1105 7.78197 16.1519 7.70657 15.8529C7.75337 15.7121 8.00448 15.6764 8.13243 15.666Z" fill="var(--fill-0, black)"/>
<path id="Vector_13" d="M9.90596 14.9334C10.0907 14.9066 10.2806 14.9328 10.463 14.9609C10.7481 15.3852 10.5389 15.3993 10.1418 15.3981C9.94111 15.3999 9.49827 15.4029 9.4007 15.1973C9.46572 15.0463 9.64235 15.0811 9.75406 14.9605C9.77727 14.9355 9.86093 14.9374 9.90596 14.9334Z" fill="var(--fill-0, black)"/>
<path id="Vector_14" d="M5.76241 16.3971C5.9731 16.3802 6.54667 16.3653 6.65938 16.567L6.63336 16.618C6.51169 16.7062 6.32847 16.7363 6.18069 16.7613C6.00751 16.7841 5.2354 16.8189 5.32263 16.5308C5.44261 16.4221 5.60018 16.42 5.76241 16.3971Z" fill="var(--fill-0, black)"/>
<path id="Vector_15" d="M10.2392 15.597C10.4044 15.5938 10.8427 15.5512 10.8819 15.7722C10.798 15.9363 10.4297 15.9059 10.269 15.9059C10.0733 15.9056 9.63034 15.9367 9.51688 15.7674C9.62127 15.5875 10.0562 15.6004 10.2392 15.597Z" fill="var(--fill-0, black)"/>
<path id="Vector_16" d="M7.8141 16.2549C8.03076 16.2313 8.50835 16.1929 8.60214 16.4368L8.57198 16.4907C8.43646 16.5807 8.3147 16.5748 8.15319 16.5862C8.01015 16.604 7.32224 16.6452 7.39492 16.396C7.52314 16.2883 7.65 16.2825 7.8141 16.2549Z" fill="var(--fill-0, black)"/>
</g>
</svg>
