<svg preserveAspectRatio="none" width="100%" height="100%" overflow="visible" style="display: block;" viewBox="0 0 146.083 44.8572" fill="none" xmlns="http://www.w3.org/2000/svg">
<g id="Group 37319">
<path id="Vector" d="M56.4515 8.57626C58.6576 5.49957 61.9928 3.42207 65.727 2.79839C70.0396 2.07376 74.0378 2.94437 77.6566 5.44419C79.7665 6.90174 82.1541 10.074 82.6037 12.5791C83.3143 16.8219 82.6209 19.462 80.1922 22.9211C79.4236 23.8254 78.2833 24.9013 77.3224 25.5966C77.2809 26.5027 76.7298 27.1126 75.9468 27.5588C71.9508 31.4506 68.8397 33.4152 63.0988 33.327C62.7953 33.3226 62.4923 33.3023 62.191 33.2659C59.0555 34.1865 52.8426 30.524 51.0474 27.8902C50.8449 27.5932 50.6702 26.7501 50.3968 26.7408C50.307 27.572 50.8018 27.6602 50.7245 28.8709C50.5281 31.9457 49.7109 34.4567 48.0442 37.0371C47.427 37.9924 46.4219 39.0296 45.79 39.9928L45.6322 39.622C50.391 34.7406 52.7733 26.5783 46.4007 21.9407C46.4485 21.6409 46.5702 21.3122 46.6561 21.011C46.9929 20.019 47.8771 20.2282 48.581 19.4825C49.024 14.6932 51.8812 12.0864 54.9666 9.0523C55.2793 8.68522 55.492 8.49518 55.8481 8.17575L56.4515 8.57626Z" fill="var(--fill-0, #FEFEFE)"/>
<path id="Vector_2" d="M55.8481 8.17576L56.4515 8.57627C55.3811 10.5726 54.4504 12.2166 54.2767 14.5018C53.6651 22.5448 61.4927 28.6368 69.1068 28.1643C69.9372 28.1126 70.7287 28.0252 71.5506 27.9416C72.2751 28.1898 72.4162 28.2351 73.1748 28.2402C74.0117 27.9269 75.1809 27.3193 75.9468 27.5588C71.9508 31.4506 68.8397 33.4152 63.0988 33.327C62.7953 33.3226 62.4923 33.3023 62.191 33.266C59.0555 34.1866 52.8426 30.524 51.0474 27.8903C50.8449 27.5932 50.6702 26.7501 50.3968 26.7408C50.307 27.5721 50.8018 27.6602 50.7245 28.8709C50.5281 31.9457 49.7109 34.4567 48.0442 37.0372C47.427 37.9924 46.4219 39.0296 45.79 39.9929L45.6322 39.6221C50.391 34.7406 52.7733 26.5783 46.4007 21.9407C46.4485 21.6409 46.5702 21.3122 46.6561 21.011C46.9929 20.019 47.8771 20.2282 48.581 19.4825C49.024 14.6932 51.8813 12.0865 54.9666 9.05232C55.2793 8.68524 55.492 8.4952 55.8481 8.17576Z" fill="var(--fill-0, #F2B764)"/>
<path id="Vector_3" d="M55.8482 8.17576L56.4516 8.57627C55.3811 10.5726 54.4504 12.2166 54.2767 14.5018C53.6652 22.5448 61.4928 28.6368 69.1068 28.1643C69.9373 28.1126 70.7287 28.0252 71.5506 27.9416C72.2751 28.1898 72.4162 28.2351 73.1748 28.2402C72.7393 28.4597 70.5413 28.812 69.9458 28.8548C60.8945 29.5025 51.5896 21.975 54.0531 12.336C54.255 11.5462 55.066 9.65431 54.9667 9.05232C55.2793 8.68524 55.492 8.4952 55.8482 8.17576Z" fill="var(--fill-0, #F69538)"/>
<path id="Vector_4" d="M46.6561 21.011C46.9929 20.019 47.8771 20.2282 48.581 19.4825C48.7104 23.0442 50.1536 26.8628 52.7759 29.3104C54.9234 31.2924 57.5972 32.6126 60.4764 33.1124C61.0982 33.2195 61.6371 33.1921 62.191 33.2659C59.0555 34.1865 52.8426 30.524 51.0474 27.8903C50.8449 27.5932 50.6702 26.7501 50.3968 26.7408C50.307 27.5721 50.8018 27.6602 50.7245 28.8709C50.5281 31.9457 49.7109 34.4567 48.0442 37.0372C47.427 37.9924 46.4219 39.0296 45.79 39.9929L45.6322 39.622C50.391 34.7406 52.7733 26.5783 46.4007 21.9407C46.4485 21.6409 46.5702 21.3122 46.6561 21.011Z" fill="var(--fill-0, #F08120)"/>
<path id="Vector_5" d="M71.5506 27.9416C73.6827 27.4921 75.4146 26.6182 77.3224 25.5966C77.281 26.5027 76.7298 27.1126 75.9469 27.5588C75.181 27.3193 74.0118 27.9269 73.1749 28.2402C72.4163 28.2351 72.2751 28.1898 71.5506 27.9416Z" fill="var(--fill-0, #EF9B42)"/>
<path id="Vector_6" d="M62.0818 14.0897C63.0856 10.4513 66.7911 8.79157 70.3753 9.63967C77.4547 11.3149 76.4389 20.6924 69.6634 21.2131L68.5826 21.2179C64.1667 21.0551 62.1112 18.8976 61.9863 14.5691L62.0818 14.0897Z" fill="var(--fill-0, #F2B764)"/>
<path id="Vector_7" d="M61.9863 14.5692L62.4784 14.6609C66.2376 14.6436 69.3934 16.0759 69.675 20.29L69.6634 21.2131L68.5826 21.2179C64.1667 21.0551 62.1112 18.8976 61.9863 14.5692Z" fill="var(--fill-0, #F44B25)"/>
<path id="Vector_8" d="M61.9863 14.5692L62.4784 14.6609C62.1871 15.4478 62.6487 16.7581 63.0239 17.4564C63.9308 19.1439 65.6535 20.0975 67.4185 20.6461C67.8618 20.784 68.154 21.0547 68.5826 21.2179C64.1667 21.0551 62.1112 18.8976 61.9863 14.5692Z" fill="var(--fill-0, #F37720)"/>
<path id="Vector_9" d="M62.0817 14.0897C63.0856 10.4513 66.7911 8.79157 70.3753 9.63967C77.4546 11.3149 76.4389 20.6924 69.6634 21.2131L69.675 20.29L69.8215 20.6105C70.8633 20.8529 73.016 18.9337 73.6544 18.1582C76.5009 14.6574 72.9754 9.92554 68.8875 10.0399C66.3132 10.112 64.422 10.7935 63.1243 13.0547C62.8145 13.5947 62.6788 13.8596 62.0817 14.0897Z" fill="var(--fill-0, #EF9B42)"/>
<path id="Vector_10" d="M95.2159 3.29075C98.1782 2.27665 101.745 2.42291 104.752 3.16618C109.54 5.18568 112.882 7.51742 114.173 12.8386C114.766 16.2765 114.26 19.3778 112.208 22.2899C112.031 22.5405 111.849 22.7879 111.663 23.0319L111.458 23.3745C110.871 25.2594 110.652 25.3123 108.978 26.3844C108.455 26.7208 108.079 27.0324 107.602 27.4229C105.739 29.3917 103.093 31.6007 100.489 32.438C92.1314 35.1239 83.5889 31.8182 80.5847 23.3602L80.1922 22.9211C82.6209 19.462 83.3143 16.8219 82.6038 12.5791L83.195 12.4966L83.2233 12.1963C84.4286 11.2143 86.0601 9.50433 87.1875 8.36649C89.3293 6.2419 91.2987 4.12256 94.2407 2.97256C94.6469 3.15638 94.7587 3.21562 95.2159 3.29075Z" fill="var(--fill-0, #FEFEFE)"/>
<path id="Vector_11" d="M87.1875 8.36649C87.426 8.52158 87.682 8.67943 87.9053 8.85358C87.527 9.49079 87.189 10.0834 86.8916 10.7455C84.3241 16.4624 86.8981 22.9204 92.2097 25.9846C92.5398 26.175 92.8809 26.3762 93.2081 26.5798L93.1714 26.7633C94.3653 27.2793 95.76 27.8778 96.9753 28.3115L96.7571 28.289C99.9818 29.3408 101.802 28.7816 105.122 28.119C105.923 27.959 106.695 27.3617 107.602 27.4229C105.739 29.3917 103.093 31.6007 100.489 32.438C92.1314 35.1239 83.5889 31.8182 80.5847 23.3602L80.1922 22.9211C82.6209 19.462 83.3143 16.8219 82.6038 12.5791L83.195 12.4966L83.2233 12.1962C84.4286 11.2143 86.0601 9.50433 87.1875 8.36649Z" fill="var(--fill-0, #F2B764)"/>
<path id="Vector_12" d="M82.6038 12.5791L83.195 12.4966C83.6164 17.6153 83.3697 19.3409 80.5847 23.3602L80.1922 22.9211C82.6209 19.462 83.3143 16.8219 82.6038 12.5791Z" fill="var(--fill-0, #EF9B42)"/>
<path id="Vector_13" d="M93.2081 26.5798C94.0113 26.8599 94.7767 27.2818 95.6136 27.5138C101.077 29.0273 104.202 28.0268 108.883 25.5737L108.978 26.3844C108.454 26.7208 108.079 27.0323 107.602 27.4229C106.695 27.3617 105.923 27.959 105.122 28.119C101.802 28.7816 99.9818 29.3408 96.7571 28.289L96.9753 28.3115C95.76 27.8778 94.3652 27.2793 93.1713 26.7633L93.2081 26.5798Z" fill="var(--fill-0, #EF9B42)"/>
<path id="Vector_14" d="M108.883 25.5737C109.696 25.051 110.718 24.0537 111.458 23.3745C110.871 25.2594 110.652 25.3123 108.978 26.3844L108.883 25.5737Z" fill="var(--fill-0, #F37720)"/>
<path id="Vector_15" d="M93.6189 16.1527C92.8562 13.0267 95.6937 10.1966 98.587 9.56081C103.711 8.43443 109.222 13.4639 105.829 18.5077C104.897 19.8849 103.448 20.8286 101.812 21.1263C101.621 21.161 101.429 21.1921 101.236 21.2197C97.6741 21.3733 94.229 20.1251 93.6189 16.1527Z" fill="var(--fill-0, #F2B764)"/>
<path id="Vector_16" d="M94.2059 14.6836C97.3951 14.5618 100.523 15.9945 101.193 19.3966L101.152 20.2016L101.236 21.2197C97.6741 21.3733 94.2289 20.1251 93.6188 16.1526C93.7448 15.4563 93.2992 15.077 94.0225 14.6747L94.2059 14.6836Z" fill="var(--fill-0, #F44B25)"/>
<path id="Vector_17" d="M94.0225 14.6747L94.2059 14.6836C93.9587 15.3686 93.977 15.3469 94.1548 16.0513C94.8941 18.9799 97.7362 21.0979 100.775 20.4788C100.878 20.4575 101.062 20.28 101.152 20.2016L101.236 21.2197C97.6741 21.3733 94.2289 20.1251 93.6188 16.1526C93.7448 15.4563 93.2992 15.077 94.0225 14.6747Z" fill="var(--fill-0, #ED6325)"/>
<path id="Vector_18" d="M93.6189 16.1527C92.8562 13.0267 95.6937 10.1966 98.587 9.56081C103.711 8.43443 109.222 13.4639 105.829 18.5077C104.897 19.8849 103.448 20.8286 101.812 21.1263C101.621 21.161 101.429 21.1921 101.236 21.2197L101.152 20.2016L101.193 19.3966L101.324 20.6899C103.647 19.9855 106.219 18.1791 106.239 15.6001C106.282 10.1768 99.243 8.35682 95.6426 11.7161C95.1358 12.1885 94.0323 14.0355 94.0225 14.6747C93.2993 15.077 93.7448 15.4563 93.6189 16.1527Z" fill="var(--fill-0, #EF9B42)"/>
<path id="Vector_19" d="M119.221 7.95714C120.917 5.81791 123.154 3.99619 125.775 3.11108C125.927 3.05957 127.165 3.05059 127.427 3.04465C124.033 4.37487 122.222 5.2597 119.931 8.07661L119.221 7.95714Z" fill="var(--fill-0, #F76722)"/>
<path id="Vector_20" d="M41.877 21.1995C42.5485 20.6668 44.5336 20.8475 45.3733 20.8875C44.948 21.3585 44.8224 21.2154 44.0534 21.3137C43.4065 21.45 42.7743 21.5626 42.1567 21.8012L41.877 21.1995Z" fill="var(--fill-0, #F37720)"/>
<path id="Vector_21" d="M4.82997 0.19238L5.00232 0C6.08865 0.226905 11.3471 -0.0934988 11.7314 0.265157C12.1362 0.270267 12.8179 0.229389 13.1449 0.406852C13.2955 1.84272 12.8923 10.4657 13.4848 10.9418C13.5673 11.008 13.6795 11.0536 13.7757 11.0969L16.1259 8.6199C16.7988 7.59751 16.7713 8.37352 17.9402 7.64751C19.2276 6.26384 19.9368 5.90519 21.6396 5.20044C24.3303 4.42223 26.0346 4.60038 28.7684 5.05723L30.0465 5.48895C38.7935 9.44369 40.0145 23.3306 31.7126 28.3402C31.1375 28.6872 30.4836 28.9857 29.8707 29.2607C30.372 29.2756 30.5129 29.2337 30.966 29.0303C31.1953 29.1917 31.1881 29.2423 31.2765 29.5261C31.2099 29.6229 31.1797 29.658 31.102 29.7404C26.849 34.2486 23.1706 35.8254 16.9636 35.8206C12.3895 35.817 7.91342 34.7844 4.58815 31.3658C-0.344096 26.2951 0.00116169 20.8612 0.00723827 14.4783L0.0228449 5.1006C0.900496 3.77894 3.55348 1.53185 4.82997 0.19238Z" fill="var(--fill-0, #FEFEFE)"/>
<path id="Vector_22" d="M4.82996 0.192388C5.16431 0.688043 5.03504 2.61321 5.04374 3.32514C5.0762 6.0393 5.07647 8.7536 5.04471 11.4678C5.03656 13.3544 4.95356 15.35 5.2016 17.1861C5.90261 22.3762 8.76054 27.4201 13.7825 29.4579C14.9071 29.9142 18.3197 30.6436 19.5365 30.6903L19.6574 30.5652L19.5478 30.4587C19.9395 30.4376 20.7264 30.5014 21.1479 30.5218C24.2526 30.6726 26.9162 30.2448 29.8707 29.2607C30.372 29.2756 30.5129 29.2337 30.966 29.0303C31.1953 29.1917 31.1881 29.2423 31.2765 29.5261C31.2099 29.6229 31.1796 29.658 31.102 29.7404C26.849 34.2486 23.1706 35.8254 16.9636 35.8206C12.3895 35.817 7.91341 34.7844 4.58814 31.3658C-0.344107 26.2951 0.00115077 20.8612 0.00722734 14.4783L0.022834 5.10061C0.900485 3.77895 3.55347 1.53186 4.82996 0.192388Z" fill="var(--fill-0, #F2B764)"/>
<path id="Vector_23" d="M16.1259 8.6199C16.3531 9.19731 16.0008 9.98672 15.8593 10.7462C15.4309 13.0446 16.9219 15.8171 18.7218 17.2292C20.5257 18.5018 22.8561 19.6186 25.1271 19.2659C26.8564 18.9973 28.144 18.0519 29.6377 17.2362C29.6662 17.2206 30.0117 17.2899 30.0669 17.3104C29.5416 20.9178 29.1579 22.9823 25.0137 23.6767C25.2308 23.9073 25.2909 23.9385 25.3704 24.2334C23.258 24.6489 20.4901 24.4604 18.4897 23.6061L19.2117 23.625L19.3686 23.3995C14.2311 21.5634 13.3637 15.8578 13.7756 11.0969L16.1259 8.6199Z" fill="var(--fill-0, #F2B764)"/>
<path id="Vector_24" d="M19.3686 23.3995C21.8709 23.8808 23.2182 22.9457 24.877 21.1689C24.8826 21.7043 24.8507 23.2471 25.0137 23.6767C25.2308 23.9073 25.2909 23.9385 25.3704 24.2334C23.258 24.649 20.4901 24.4604 18.4897 23.6061L19.2117 23.625L19.3686 23.3995Z" fill="var(--fill-0, #F08120)"/>
<path id="Vector_25" d="M4.82998 0.192386L5.00233 6.02662e-06C6.08865 0.226911 11.3471 -0.0934927 11.7314 0.265163L5.58278 0.295685L5.59576 9.65679C5.5999 16.0275 5.27426 21.3871 10.1898 26.383C12.6929 28.927 16.0268 30.1179 19.5479 30.4587L19.6574 30.5652L19.5365 30.6903C18.3197 30.6436 14.9071 29.9142 13.7826 29.4579C8.76055 27.4201 5.90263 22.3762 5.20161 17.1861C4.95358 15.35 5.03658 13.3544 5.04473 11.4678C5.07649 8.75359 5.07621 6.03929 5.04376 3.32514C5.03506 2.61321 5.16433 0.688041 4.82998 0.192386Z" fill="var(--fill-0, #F08120)"/>
<path id="Vector_26" d="M16.1259 8.6199C16.7987 7.59752 16.7712 8.37353 17.9402 7.64751C15.6323 11.1331 16.0907 14.2242 19.2403 16.985C20.9343 18.179 22.9985 18.7301 25.0622 18.5391C27.3493 18.3221 28.8694 17.2067 30.2734 15.5235C30.5713 16.6853 30.4859 18.4076 30.3353 19.6137C30.0078 22.2327 27.9183 23.9303 25.3704 24.2334C25.2909 23.9385 25.2308 23.9073 25.0137 23.6767C29.1579 22.9823 29.5416 20.9178 30.0669 17.3104C30.0117 17.2899 29.6662 17.2206 29.6377 17.2362C28.144 18.0519 26.8564 18.9973 25.1271 19.2659C22.8561 19.6187 20.5257 18.5018 18.7218 17.2292C16.9219 15.8171 15.4309 13.0446 15.8593 10.7462C16.0008 9.98672 16.3531 9.19732 16.1259 8.6199Z" fill="var(--fill-0, #EF9B42)"/>
<path id="Vector_27" d="M18.4897 23.6061C12.0803 21.5601 12.9761 12.8212 13.0654 7.64448C13.1021 5.51202 12.8624 2.46558 13.1449 0.406863C13.2954 1.84273 12.8923 10.4657 13.4848 10.9418C13.5672 11.008 13.6795 11.0536 13.7756 11.0969C13.3637 15.8578 14.2311 21.5634 19.3686 23.3995L19.2117 23.625L18.4897 23.6061Z" fill="var(--fill-0, #EF9B42)"/>
<path id="Vector_28" d="M132.034 2.53131C136.434 2.92961 140.328 4.22433 143.232 7.7765C147.854 13.4279 146.654 20.6258 141.091 25.1431C140.895 25.3023 140.692 25.4533 140.485 25.5959C140.376 26.4469 139.644 27.2849 138.902 27.6711C136.53 29.9827 134.401 31.8194 131.151 32.7293C123.442 34.8865 114.503 31.4004 112.182 23.2729L111.663 23.0319C111.849 22.7879 112.031 22.5405 112.208 22.2899C114.26 19.3778 114.766 16.2765 114.173 12.8386C114.451 12.752 114.474 12.714 114.704 12.5251L114.97 12.0476C116.01 11.104 117 10.0433 118.09 9.06211C118.446 8.68689 118.845 8.3169 119.221 7.95714L119.931 8.07661C122.222 5.2597 124.033 4.37486 127.427 3.04464C127.585 3.03788 128.727 2.81954 129.05 2.77949C130.082 2.65146 131 2.59388 132.034 2.53131Z" fill="var(--fill-0, #FEFEFE)"/>
<path id="Vector_29" d="M118.09 9.06212C118.29 9.95276 117.586 11.008 117.264 11.8989C115.447 16.9386 118.162 23.1638 122.587 25.9756C122.873 26.1559 123.163 26.33 123.455 26.4978L124.164 26.2623L125.45 26.8966L124.959 27.2743C128.55 29.2655 133.023 29.1293 136.814 28.0067C137.347 27.8491 138.397 27.5081 138.902 27.6711C136.53 29.9827 134.401 31.8195 131.151 32.7293C123.442 34.8865 114.503 31.4004 112.182 23.2729L111.663 23.0319C111.849 22.7879 112.031 22.5405 112.208 22.2899C114.26 19.3778 114.766 16.2765 114.173 12.8386C114.451 12.752 114.474 12.714 114.704 12.5251L114.97 12.0477C116.01 11.104 117 10.0434 118.09 9.06212Z" fill="var(--fill-0, #F2B764)"/>
<path id="Vector_30" d="M114.173 12.8386C114.451 12.752 114.474 12.714 114.704 12.5251C114.829 13.0018 115.128 13.8723 115.183 14.315C115.568 17.3741 114.128 20.9522 112.182 23.2729L111.663 23.0319C111.849 22.7879 112.031 22.5405 112.208 22.2899C114.26 19.3778 114.766 16.2765 114.173 12.8386Z" fill="var(--fill-0, #EF9B42)"/>
<path id="Vector_31" d="M119.221 7.95715L119.931 8.07662C115.527 14.7005 117.103 22.3593 124.164 26.2623L123.455 26.4978C123.163 26.33 122.873 26.1559 122.587 25.9756C118.162 23.1638 115.447 16.9386 117.264 11.8989C117.586 11.008 118.29 9.95276 118.09 9.06212C118.446 8.68689 118.845 8.31691 119.221 7.95715Z" fill="var(--fill-0, #EF9B42)"/>
<path id="Vector_32" d="M126.415 11.7328C127.288 10.7978 128.384 10.0997 129.601 9.70402C131.608 9.05645 133.196 9.33762 134.993 10.2783C135.23 10.4088 135.589 10.5915 135.805 10.7384C140.546 13.9061 138.288 20.3112 133.174 21.1521C133.066 21.1698 132.957 21.1845 132.849 21.1961C131.892 21.2462 131.381 21.2099 130.43 21.1296C129.083 20.9313 128.347 20.5717 127.256 19.8306C127.163 19.7562 127.074 19.6773 126.988 19.5945C125.447 18.0839 125.055 16.9126 125.009 14.8175C125.211 13.4859 125.545 12.7411 126.415 11.7328Z" fill="var(--fill-0, #F2B764)"/>
<path id="Vector_33" d="M125.657 14.6437L125.811 14.6763C129.181 14.648 132.862 16.4411 132.902 20.2289V20.3514L132.918 20.523L132.849 21.1961C131.892 21.2462 131.381 21.2099 130.43 21.1296C129.083 20.9313 128.347 20.5717 127.256 19.8306C127.163 19.7562 127.074 19.6773 126.988 19.5945C125.447 18.0839 125.055 16.9126 125.009 14.8175C125.121 14.7628 125.513 14.6785 125.657 14.6437Z" fill="var(--fill-0, #F44B25)"/>
<path id="Vector_34" d="M125.657 14.6437L125.811 14.6763C125.39 15.0375 125.498 14.8536 125.375 15.3579C125.65 16.544 126.52 18.0298 127.282 18.9828C127.281 19.2445 127.291 19.5767 127.256 19.8306C127.163 19.7562 127.074 19.6773 126.988 19.5945C125.447 18.0839 125.055 16.9126 125.009 14.8175C125.121 14.7628 125.513 14.6785 125.657 14.6437Z" fill="var(--fill-0, #F37720)"/>
<path id="Vector_35" d="M127.282 18.9828C128.271 19.7135 129.068 20.3146 130.359 20.4274L130.43 21.1296C129.083 20.9313 128.347 20.5717 127.256 19.8306C127.29 19.5767 127.281 19.2445 127.282 18.9828Z" fill="var(--fill-0, #F76722)"/>
<path id="Vector_36" d="M130.359 20.4274C131.458 20.5381 131.849 20.5278 132.902 20.3514L132.918 20.523L132.849 21.1961C131.892 21.2462 131.381 21.2099 130.43 21.1296L130.359 20.4274Z" fill="var(--fill-0, #ED6325)"/>
<path id="Vector_37" d="M135.805 10.7384C140.546 13.9061 138.288 20.3112 133.174 21.1522C133.066 21.1698 132.957 21.1845 132.849 21.1961L132.918 20.523C133.048 20.5426 133.138 20.5627 133.27 20.5369C136.596 19.8928 138.746 16.3004 137.202 13.151C136.727 12.1824 136.213 11.6862 135.364 11.0327L135.805 10.7384Z" fill="var(--fill-0, #EF9B42)"/>
<path id="Vector_38" d="M126.415 11.7328C127.288 10.7978 128.384 10.0997 129.601 9.70402C131.608 9.05645 133.196 9.33762 134.993 10.2783L134.207 10.4553C131.9 9.48526 128.322 10.2579 126.719 12.2121L126.415 11.7328Z" fill="var(--fill-0, #EF9B42)"/>
<path id="Vector_39" d="M126.415 11.7328L126.719 12.2121C126.353 12.9866 125.851 13.8387 125.657 14.6437C125.513 14.6785 125.121 14.7628 125.009 14.8175C125.211 13.4859 125.545 12.7411 126.415 11.7328Z" fill="var(--fill-0, #E69B43)"/>
<path id="Vector_40" d="M134.993 10.2783C135.23 10.4088 135.589 10.5915 135.805 10.7384L135.364 11.0327L134.207 10.4553L134.993 10.2783Z" fill="var(--fill-0, #F08120)"/>
<path id="Vector_41" d="M30.0465 5.48896L31.413 5.48357C32.88 6.06084 35.2486 8.83577 36.058 10.2327C36.7495 11.426 38.3145 15.7516 38.0521 17.0563C38.6337 17.298 38.5146 17.1564 38.8465 17.6261C40.1576 18.1253 40.1368 22.7948 41.877 21.1995L42.1567 21.8012C42.7743 21.5626 43.4065 21.4501 44.0534 21.3137C44.8224 21.2154 44.9481 21.3585 45.3733 20.8876C45.6773 20.9277 46.3937 21.0418 46.6561 21.011C46.5702 21.3122 46.4486 21.6409 46.4008 21.9407C52.7733 26.5783 50.391 34.7406 45.6322 39.622L45.7901 39.9929C45.5045 40.8372 44.0344 42.0224 43.3249 42.5956L43.1005 42.5783C42.3234 43.1286 41.334 44.1531 40.6961 44.8572C39.3144 44.0939 36.7749 43.1361 35.1931 42.4325C35.9567 41.404 37.0529 40.3431 37.9039 39.2239C37.8778 38.8339 38.7009 37.5885 38.9785 37.0877C38.7458 36.6654 35.653 35.5868 34.7483 33.4568C34.0387 32.0099 33.7422 31.168 34.1759 29.4496C34.851 26.7752 37.361 25.4729 39.0545 23.585C39.3413 23.2653 40.7772 23.221 41.1817 22.1819L40.869 22.1747C40.7984 21.8678 39.692 19.3369 39.414 19.0212C39.1086 19.8154 39.3486 19.3724 39.3702 20.0714C38.3379 21.7231 37.6233 19.1096 37.1011 21.5777C36.529 24.2816 34.4799 26.8749 32.1484 28.3953C32.2429 28.586 32.316 28.7736 32.3973 28.9699C32.1766 29.2174 31.616 29.392 31.2765 29.5261C31.1881 29.2423 31.1952 29.1917 30.966 29.0303C30.5129 29.2337 30.372 29.2756 29.8707 29.2607C30.4836 28.9857 31.1375 28.6873 31.7126 28.3402C40.0144 23.3306 38.7935 9.4437 30.0465 5.48896Z" fill="var(--fill-0, #F2B764)"/>
<path id="Vector_42" d="M45.3733 20.8876C45.6772 20.9277 46.3937 21.0418 46.6561 21.011C46.5702 21.3122 46.4485 21.6409 46.4008 21.9407C52.7733 26.5783 50.391 34.7406 45.6322 39.6221C45.0269 38.9667 42.068 37.8985 41.0604 37.5059L40.9842 37.1971L40.491 36.9521C41.4525 36.2305 43.5797 33.3556 44.3434 32.3193L44.7246 32.6171C45.2162 31.1958 44.1878 31.5167 43.203 30.9897C39.764 29.1494 38.2425 24.1295 42.1567 21.8012C42.7743 21.5626 43.4065 21.4501 44.0534 21.3137C44.8224 21.2154 44.948 21.3585 45.3733 20.8876Z" fill="var(--fill-0, #FEFEFE)"/>
<path id="Vector_43" d="M45.3732 20.8876C45.6772 20.9277 46.3937 21.0418 46.6561 21.011C46.5702 21.3122 46.4485 21.6409 46.4007 21.9407C45.5221 21.6162 44.9662 21.506 44.0534 21.3137C44.8223 21.2154 44.948 21.3585 45.3732 20.8876Z" fill="var(--fill-0, #F37720)"/>
<path id="Vector_44" d="M30.0465 5.48896L31.413 5.48357C32.88 6.06084 35.2486 8.83577 36.058 10.2327C36.7495 11.426 38.3145 15.7516 38.0521 17.0563C38.6337 17.298 38.5146 17.1564 38.8465 17.6261C40.1576 18.1253 40.1368 22.7948 41.877 21.1995L42.1567 21.8012C38.2426 24.1295 39.764 29.1493 43.203 30.9897C44.1878 31.5167 45.2163 31.1958 44.7246 32.6171L44.3434 32.3193L44.26 32.251C43.78 31.8636 43.2908 31.6854 42.7917 31.35C39.5758 29.1902 38.9197 27.3794 39.52 23.6009C37.5183 25.4197 34.3308 27.71 34.265 30.5608C34.1866 33.9645 36.8107 35.6846 39.4769 36.8224C38.9519 37.7484 38.6106 38.425 37.9039 39.2239C37.8778 38.8339 38.7009 37.5885 38.9785 37.0877C38.7458 36.6654 35.653 35.5868 34.7483 33.4568C34.0387 32.0099 33.7422 31.168 34.1759 29.4496C34.851 26.7752 37.361 25.4729 39.0545 23.585C39.3413 23.2653 40.7772 23.221 41.1817 22.1819L40.869 22.1747C40.7984 21.8678 39.692 19.3369 39.414 19.0212C39.1086 19.8154 39.3486 19.3724 39.3702 20.0714C38.3379 21.7231 37.6233 19.1096 37.1011 21.5777C36.529 24.2816 34.4799 26.8749 32.1484 28.3953C32.2429 28.586 32.316 28.7736 32.3973 28.9699C32.1766 29.2174 31.616 29.392 31.2765 29.5261C31.1881 29.2423 31.1952 29.1917 30.966 29.0303C30.5129 29.2337 30.372 29.2756 29.8707 29.2607C30.4836 28.9857 31.1375 28.6873 31.7126 28.3402C40.0144 23.3306 38.7935 9.4437 30.0465 5.48896Z" fill="var(--fill-0, #F37720)"/>
<path id="Vector_45" d="M38.0521 17.0563C38.6336 17.298 38.5146 17.1564 38.8465 17.6261C38.9541 18.2935 39.1018 19.4876 38.935 20.1176C38.6281 20.4923 38.7937 20.4039 38.3203 20.4518C37.9442 20.0571 38.1486 18.0713 38.0521 17.0563Z" fill="var(--fill-0, #ED6325)"/>
</g>
</svg>
