<svg width="100" height="107" viewBox="0 0 100 107" fill="none" xmlns="http://www.w3.org/2000/svg">
<g opacity="0.1">
<path d="M14.1072 62.4293C13.0566 61.2812 13.1108 60.2252 13.5332 59.0284C14.4701 56.3911 16.3492 54.5823 18.5479 53.0226L19.3115 52.4811C19.048 52.2556 18.7674 52.051 18.4721 51.8692C15.4394 50.3474 13.2733 47.9267 11.4645 45.1486C8.75678 40.957 7.39209 36.2564 6.64476 31.3879C6.30824 29.0951 6.15792 26.7787 6.19527 24.4616C6.24401 17.5731 4.51107 11.2641 0.438652 5.65373C0.288314 5.429 0.154384 5.19372 0.037908 4.94972C0.00541528 4.89557 0.0379081 4.81975 0 4.61396C1.08309 3.53087 2.61566 3.38466 4.07242 3.4009C5.43264 3.43805 6.78506 3.61958 8.10693 3.94245C13.2431 5.13288 17.8615 7.94038 21.2827 11.9519C22.1817 12.97 23.0969 13.9773 24.0717 15.0658C24.6626 13.7939 24.7928 12.3561 24.4399 10.9988C23.8653 8.53008 22.7562 6.21749 21.1907 4.22405C20.9903 3.95328 20.7737 3.68251 20.5949 3.4009C20.5354 3.30342 20.5949 3.13554 20.5949 2.81603C20.9889 2.67082 21.3948 2.56029 21.808 2.48569C26.4166 2.01455 30.3861 3.66084 34.009 6.30899C37.04 8.43412 39.5582 11.2094 41.3794 14.4322C41.5981 14.7734 41.8425 15.0975 42.1105 15.4015C44.6016 10.0294 47.8672 5.11218 51.2031 0C54.5823 4.02368 56.6185 8.62681 58.7847 13.1487C60.2469 11.4753 61.4924 9.86695 62.9438 8.43185C65.8033 5.48043 69.3608 3.29753 73.2873 2.08495C74.1256 1.79751 75.0147 1.68806 75.8977 1.76359C76.7808 1.83912 77.6383 2.09796 78.4157 2.5236C76.2495 6.69349 74.7819 11.0096 76.2495 15.8727C77.7655 13.312 79.6941 11.0193 81.9574 9.08712C85.3041 6.15737 89.0571 4.12116 93.606 3.63377C95.1441 3.40465 96.7099 3.43944 98.2362 3.73666C98.7686 3.89441 99.2897 4.088 99.7959 4.31611C99.7959 5.22049 99.2543 5.74579 98.767 6.29817C96.3957 8.87592 94.8411 12.0982 94.2992 15.5586C94.0122 18.2804 94.0122 21.0249 94.2992 23.7467C94.617 27.2044 94.5988 30.6848 94.245 34.139C93.7035 38.6663 91.9814 42.6737 89.5878 46.4375C88.693 47.7235 87.7066 48.9433 86.6363 50.0875C86.019 50.8077 85.3096 51.4468 84.5514 52.2157C85.3475 53.0389 86.0298 53.7808 86.7501 54.4848C87.7562 55.5151 88.4992 56.7727 88.9163 58.1511C89.1705 58.8595 89.2645 59.6155 89.1915 60.3647C89.1184 61.1138 88.8802 61.8374 88.4938 62.4834C88.2556 62.3805 88.0173 62.3535 87.8981 62.2235C86.1652 60.2577 83.6416 60.6909 81.5079 61.9202C80.2452 62.7273 79.04 63.6212 77.9012 64.5955C75.7367 66.3775 73.1297 67.5396 70.3575 67.9585C67.9537 68.3081 65.501 68.0703 63.2091 67.2653C62.5628 67.0752 61.8718 67.1037 61.2433 67.3465C58.8551 68.2942 56.7268 69.5723 55.5842 72.0796C55.0683 73.0358 54.7775 74.0971 54.7339 75.1827C54.7339 76.2116 54.7339 77.2351 54.7339 78.264C54.7415 82.5626 54.1732 86.8427 53.0443 90.9903C52.6226 92.2996 52.1346 93.5865 51.5821 94.8461C52.8223 94.8461 54.0462 94.9328 55.2538 94.8461C56.4615 94.7595 56.494 94.6512 57.42 95.6693C56.781 97.7759 56.651 97.8842 54.669 97.8896C53.3043 97.8896 51.9342 97.9221 50.564 97.8896C48.5495 97.8301 47.6018 96.0917 48.6091 94.3642C49.8843 92.1091 50.6704 89.6107 50.916 87.0317C51.2464 84.129 51.4576 81.2155 51.7067 78.302C51.7663 77.5438 51.9991 76.634 50.8781 76.1683C50.3366 76.8669 50.5857 77.6304 50.5532 78.3344C50.3962 82.0549 50.2933 85.7861 49.3402 89.4145C48.5982 92.2359 47.3635 94.7649 45.062 96.6982C43.7435 97.7913 42.145 98.493 40.448 98.7236C38.5811 99.0783 36.6651 99.0893 34.7943 98.7561C33.9287 98.6026 33.0897 98.3254 32.3032 97.933C31.4908 97.4889 31.4421 96.7795 32.0432 96.0376C32.9855 94.8732 34.1173 94.0338 35.7257 94.1746C36.9388 94.2775 38.1572 94.4021 39.3703 94.5158C39.7115 94.5483 40.0527 94.5808 40.3938 94.5862C41.4769 94.5862 42.56 94.5862 43.6431 94.5862C46.01 91.361 47.3959 87.5213 47.6343 83.5279C47.813 81.7832 47.813 80.0249 47.6343 78.2803C47.3419 76.0329 46.9249 73.8234 45.5168 71.9875C44.7928 71.0902 43.9637 70.283 43.0474 69.5831C42.3109 68.9874 41.3849 68.6354 40.6267 68.0613C39.1754 66.9783 37.7836 66.5234 35.9315 67.314C34.8755 67.7635 33.4783 67.6823 32.2923 67.4981C30.0124 67.1461 27.7542 66.6804 25.7938 65.2995C24.2146 64.226 22.5706 63.2511 20.8711 62.3805C19.9632 61.9102 18.9815 61.5989 17.9685 61.4599C17.1627 61.4295 16.358 61.5413 15.5911 61.7903C15.0786 61.959 14.582 62.1729 14.1072 62.4293ZM51.1868 6.2061C48.257 10.3865 45.669 14.7963 43.4481 19.3927C41.5574 23.1739 40.0812 27.1485 39.0454 31.2471C38.1139 35.1733 37.4207 39.0995 38.2601 43.1611C39.1645 47.461 41.0978 51.1327 44.8237 53.5913C48.2354 55.8495 52.01 56.3477 55.7196 54.5336C60.1548 52.3674 62.3481 48.4087 63.2579 43.7027C63.7182 41.2928 63.5828 38.8775 63.3987 36.4081C63.0743 32.6079 62.2738 28.8636 61.0159 25.2631C58.91 18.9801 55.9547 13.0148 52.232 7.53289C51.9396 7.09424 51.5876 6.70974 51.1868 6.2061ZM4.8739 7.13756C5.77287 9.09254 6.77473 10.9284 7.50581 12.9267C9.3579 17.9035 9.80196 23.1402 9.85612 28.3824C9.89944 32.7147 10.7334 36.7655 12.8779 40.5292C14.7788 43.876 16.9666 46.9953 20.4271 48.9448C23.0265 50.4178 25.7613 51.0677 28.8264 49.8817C28.1874 49.0531 27.6025 48.3924 27.1206 47.6668C25.3926 44.9661 24.0938 42.014 23.2702 38.9154C22.2683 35.3954 22.0734 31.7941 22.0138 28.2145C21.9596 25.393 22.6474 22.5608 22.9398 19.7285C23.0222 19.1331 22.904 18.5272 22.6041 18.0064C19.344 13.5495 15.3149 10.0565 10.1377 8.0636C8.48087 7.34354 6.67702 7.0262 4.8739 7.13756ZM72.9569 52.1291C73.0436 52.2266 73.1248 52.3945 73.2277 52.4161C76.0167 53.001 78.6432 52.7031 81.0584 51.0623C84.6597 48.5982 87.0154 45.1053 88.7809 41.2224C90.0008 38.7743 90.7154 36.1056 90.8821 33.3754C90.947 31.3392 91.1799 29.2976 91.0987 27.2668C90.9958 24.4832 90.4272 21.7051 90.503 18.9378C90.5788 16.1705 90.9633 13.5224 92.3063 11.0421C93.0861 9.61784 93.931 8.23148 94.8624 6.63934C94.1507 6.63344 93.4394 6.67868 92.7341 6.77472C89.2485 7.52259 86.0411 9.22944 83.4737 11.7028C81.1215 13.9882 79.1636 16.647 77.6792 19.5714C77.5452 19.8383 77.4679 20.1301 77.452 20.4283C77.4362 20.7265 77.4822 21.0248 77.5871 21.3044C78.8435 26.4815 79.6667 31.7129 79.3688 37.0742C79.207 40.9753 78.025 44.7658 75.9408 48.0675C75.0527 49.4809 73.9696 50.7807 72.9569 52.1291ZM73.9155 6.47688C72.5778 6.21694 72.5833 6.23318 71.8792 6.47688C67.0866 8.03653 63.7561 11.3508 61.1567 15.5044C60.7018 16.2301 60.8426 16.8854 61.1892 17.6273C62.0935 19.5389 62.9654 21.4668 63.7615 23.4272C65.4687 27.739 66.5413 32.2757 66.9458 36.8954C67.1028 38.8686 67.0483 40.8529 66.7833 42.8145C66.3555 46.4158 64.6171 49.5405 62.8192 52.6111C62.5538 53.0606 62.3481 53.5479 62.0773 54.0895C63.3553 54.5281 64.4113 53.9866 65.3266 53.6129C71.7439 51.0677 75.4155 46.145 76.282 39.4515C76.8549 35.2393 76.6419 30.9573 75.6538 26.8227C75.1123 24.7107 74.5707 22.6041 74.0996 20.4812C73.5959 18.2284 73.0761 15.9647 72.762 13.6794C72.4587 11.1937 73.1735 8.81635 73.9263 6.47688H73.9155ZM39.4299 53.0497C36.9373 49.3786 35.4288 45.129 35.0488 40.7079C34.8267 38.8045 34.8267 36.8818 35.0488 34.9784C35.5472 31.3387 36.4556 27.7671 37.7565 24.3316C38.4118 22.6203 39.1266 20.9307 39.7927 19.279C37.6234 15.214 34.7312 11.5786 31.258 8.55099C29.5337 7.03948 27.4605 5.98057 25.2252 5.4696C27.5863 9.10878 28.0683 12.8996 27.2505 16.9233C26.7523 19.3819 26.2487 21.8459 25.8588 24.3262C25.1201 28.8496 25.3211 33.4766 26.4491 37.919C27.6021 42.7364 30.2573 47.0624 34.0307 50.2716C35.5743 51.6297 37.4347 52.5776 39.4407 53.0281L39.4299 53.0497ZM60.5501 56.8405C57.6691 57.7341 54.8802 58.5302 51.8854 58.5031C48.886 58.5344 45.9003 58.0958 43.0366 57.2034C42.3488 56.9705 41.7477 56.8514 41.2007 57.4958C40.4016 58.4892 39.9749 59.7308 39.9947 61.0056C40.0145 62.2804 40.4794 63.5082 41.309 64.4763C41.8703 65.0692 42.5142 65.5781 43.2207 65.9872C45.2642 67.1043 47.0128 68.6914 48.322 70.6174C48.5516 70.957 48.8309 71.26 49.1506 71.5164C50.6344 72.7674 51.9937 72.567 53.1093 70.9424C53.3771 70.5515 53.6142 70.1405 53.8187 69.7131C54.3973 68.3995 55.3676 67.2968 56.5969 66.5559C57.42 66.0901 58.2973 65.7056 59.1638 65.3211C62.9113 63.664 63.6369 59.5808 60.5555 56.873L60.5501 56.8405ZM17.324 58.7143C18.0749 58.5849 18.8371 58.5341 19.5985 58.5626C21.5687 58.8475 23.4241 59.6638 24.9652 60.9238C25.4748 61.3726 26.0179 61.7817 26.5899 62.1477C29.7741 64.0648 33.0884 65.1966 36.8792 63.9456C36.7763 62.4509 36.4081 60.9888 36.6572 59.6403C36.9063 58.2919 37.7836 56.9976 38.3251 55.8008C36.5164 55.0318 34.7509 54.3224 33.018 53.5263C32.6617 53.3345 32.2705 53.2164 31.8676 53.1792C31.4647 53.142 31.0585 53.1864 30.6731 53.3097C28.5365 54.0701 26.2226 54.1812 24.0229 53.6292C23.5656 53.5064 23.0799 53.5446 22.6474 53.7375C20.4207 54.8353 18.5699 56.5692 17.3294 58.7197L17.324 58.7143ZM84.9467 58.254C83.9665 55.2105 82.396 54.2736 79.5963 55.0047C78.4753 55.2863 77.3651 55.6221 76.2333 55.8441C74.235 56.234 72.2692 56.5589 70.1734 56.104C68.3484 55.7033 66.3826 55.6329 64.4763 56.7539C65.8735 59.2721 65.5594 61.839 64.6117 64.3788C64.8817 64.5541 65.1728 64.6942 65.4782 64.7958C69.3286 65.3699 72.9732 65.0449 76.0437 62.2885C78.5836 60.0086 81.3509 58.2269 84.9521 58.2594L84.9467 58.254ZM40.4642 95.9401C38.5201 96.6062 36.7222 95.848 34.7509 96.6712C37.6753 97.256 38.9262 97.1098 40.4642 95.9401Z" fill="#EFA770"/>
<path d="M33.3212 102.229C33.7111 100.783 34.7076 100.729 35.6445 100.604C35.9049 100.553 36.1734 100.563 36.4297 100.631C38.7584 101.46 40.9787 100.778 43.172 100.09C43.5571 99.959 43.968 99.9222 44.3702 99.9825C44.7725 100.043 45.1545 100.198 45.4844 100.436C46.2534 100.94 46.2967 101.839 45.4844 102.24C44.5092 102.699 43.4734 103.016 42.4084 103.182C40.0015 103.578 37.534 103.369 35.2275 102.575C34.6008 102.416 33.9639 102.3 33.3212 102.229Z" fill="#EFA770"/>
<path d="M65.5487 103.836C65.2616 104.42 64.8077 104.904 64.2446 105.229C63.6816 105.554 63.0347 105.705 62.3861 105.661C59.9545 105.634 57.4201 106.268 55.1023 105.093C55.0278 104.684 55.1181 104.262 55.3534 103.919C55.5888 103.576 55.9501 103.34 56.3587 103.262C58.8178 102.745 61.3405 102.599 63.8428 102.829C64.4006 102.862 64.9259 103.452 65.5487 103.836Z" fill="#EFA770"/>
<path d="M52.6004 99.504C53.5479 99.4516 54.4978 99.4642 55.4435 99.5419C55.6977 99.5863 55.9383 99.6885 56.1468 99.8406C56.3553 99.9927 56.526 100.191 56.6458 100.419C56.7378 100.771 56.2829 101.345 55.9472 101.708C55.6642 102.015 55.279 102.207 54.8641 102.25C53.0445 102.331 51.214 102.396 49.3944 102.32C49.0472 102.302 48.7194 102.154 48.4751 101.907C48.2307 101.659 48.0874 101.33 48.0731 100.982C48.1161 100.61 48.2841 100.263 48.5497 99.9986C48.8152 99.734 49.1627 99.5673 49.5352 99.5257C50.5588 99.439 51.5823 99.504 52.6004 99.504Z" fill="#EFA770"/>
<path d="M41.3632 104.548C41.661 105.322 41.6231 105.826 41.0328 106.14C40.5925 106.457 40.0965 106.688 39.5707 106.822C37.6915 107.012 35.7798 107.196 33.944 106.546C33.4024 106.346 32.9096 106.086 32.8988 105.463C32.888 104.84 33.3645 104.542 33.944 104.38C36.3852 103.75 38.953 103.809 41.3632 104.548Z" fill="#EFA770"/>
<path d="M59.2829 100.952C59.5862 99.5169 60.1927 98.8183 61.5141 98.7317C63.1387 98.6288 64.7634 98.7317 66.388 98.7317C66.4557 98.7323 66.523 98.7414 66.5884 98.7588C67.6715 99.0133 68.3051 99.6469 68.213 100.302C68.121 100.957 67.444 101.326 66.2905 101.299C64.2706 101.255 62.2452 101.25 60.2252 101.207C59.9026 101.157 59.5866 101.072 59.2829 100.952Z" fill="#EFA770"/>
<path d="M66.5612 95.7296C66.3337 96.6881 65.8788 97.1268 64.9636 97.0997C63.5394 97.051 62.1151 97.0997 60.6908 97.0997C60.311 97.1226 59.9318 97.0451 59.5915 96.875C59.2511 96.7048 58.9616 96.448 58.7521 96.1303C59.0283 94.7494 60.133 94.2295 61.254 94.2187C63.1061 94.1808 65.2831 93.3522 66.5612 95.7296Z" fill="#EFA770"/>
<path d="M54.1384 104.137C53.8676 105.491 52.752 105.561 51.9018 105.653C50.4112 105.757 48.916 105.777 47.4232 105.713C47.0288 105.719 46.6434 105.595 46.3257 105.362C46.0079 105.128 45.7753 104.797 45.6631 104.419C46.6596 102.794 48.5063 102.978 49.963 102.875C51.4198 102.772 53.0823 102.756 54.1384 104.137Z" fill="#EFA770"/>
</g>
</svg>
