<svg width="134" height="143" viewBox="0 0 134 143" fill="none" xmlns="http://www.w3.org/2000/svg">
<g opacity="0.1">
<path d="M18.8536 83.4335C17.4495 81.8992 17.5219 80.4879 18.0864 78.8884C19.3385 75.3637 21.8499 72.9464 24.7883 70.862L25.8088 70.1383C25.4567 69.8369 25.0816 69.5635 24.687 69.3205C20.634 67.2867 17.739 64.0516 15.3217 60.3388C11.703 54.737 9.87915 48.4548 8.88038 41.9484C8.43064 38.8841 8.22975 35.7884 8.27967 32.6916C8.3448 23.4856 6.02881 15.0539 0.586236 7.55591C0.385316 7.25558 0.206326 6.94114 0.0506621 6.61505C0.00723725 6.54267 0.0506623 6.44135 0 6.16632C1.44749 4.71883 3.4957 4.52342 5.44258 4.54513C7.26044 4.59477 9.06788 4.83738 10.8345 5.26888C17.6987 6.85982 23.871 10.6119 28.4433 15.9731C29.6447 17.3337 30.8678 18.6799 32.1706 20.1346C32.9603 18.4348 33.1343 16.5133 32.6627 14.6993C31.8948 11.4 30.4124 8.30935 28.3202 5.64522C28.0524 5.28335 27.7629 4.92148 27.5241 4.54513C27.4445 4.41486 27.5241 4.19049 27.5241 3.76348C28.0506 3.56942 28.5931 3.4217 29.1453 3.322C35.3044 2.69234 40.6094 4.89253 45.4513 8.43165C49.5021 11.2718 52.8674 14.9808 55.3015 19.2878C55.5938 19.7439 55.9204 20.177 56.2785 20.5834C59.6078 13.4038 63.972 6.83217 68.4303 0C72.9464 5.37744 75.6677 11.5293 78.5627 17.5726C80.5168 15.3362 82.1814 13.1867 84.1211 11.2687C87.9427 7.32431 92.6971 4.40698 97.9447 2.78643C99.0651 2.40228 100.253 2.256 101.433 2.35694C102.614 2.45788 103.76 2.80382 104.799 3.37266C101.904 8.94551 99.9422 14.7138 101.904 21.213C103.93 17.7908 106.507 14.7267 109.532 12.1445C114.005 8.229 119.02 5.50771 125.1 4.85634C127.155 4.55013 129.248 4.59663 131.288 4.99385C131.999 5.20468 132.696 5.46341 133.372 5.76826C133.372 6.97692 132.648 7.67895 131.997 8.41717C128.828 11.8622 126.75 16.1687 126.026 20.7932C125.642 24.4308 125.642 28.0987 126.026 31.7363C126.451 36.3573 126.426 41.0086 125.954 45.625C125.23 51.6755 122.928 57.0312 119.729 62.0613C118.534 63.78 117.215 65.4103 115.785 66.9393C114.96 67.9019 114.012 68.7559 112.999 69.7837C114.063 70.8837 114.974 71.8753 115.937 72.8162C117.282 74.1931 118.275 75.8738 118.832 77.7159C119.172 78.6627 119.297 79.6731 119.2 80.6743C119.102 81.6755 118.784 82.6426 118.267 83.5059C117.949 83.3684 117.631 83.3322 117.471 83.1585C115.155 80.5313 111.783 81.1103 108.931 82.7532C107.244 83.8319 105.633 85.0265 104.111 86.3285C101.218 88.7101 97.7341 90.2633 94.0292 90.823C90.8166 91.2903 87.5387 90.9724 84.4757 89.8966C83.6119 89.6425 82.6884 89.6807 81.8485 90.0051C78.6568 91.2717 75.8125 92.9797 74.2854 96.3307C73.5959 97.6085 73.2073 99.0269 73.1491 100.478C73.1491 101.853 73.1491 103.221 73.1491 104.596C73.1591 110.341 72.3997 116.061 70.891 121.604C70.3274 123.354 69.6752 125.074 68.9369 126.757C70.5943 126.757 72.2299 126.873 73.8439 126.757C75.4578 126.641 75.5013 126.496 76.7389 127.857C75.8849 130.672 75.7112 130.817 73.0622 130.824C71.2384 130.824 69.4073 130.868 67.5762 130.824C64.8839 130.745 63.6173 128.422 64.9635 126.113C66.6678 123.099 67.7184 119.76 68.0467 116.313C68.4882 112.434 68.7704 108.54 69.1033 104.647C69.183 103.633 69.4942 102.417 67.996 101.795C67.2723 102.729 67.6052 103.749 67.5618 104.69C67.3519 109.662 67.2144 114.649 65.9406 119.498C64.949 123.269 63.2989 126.648 60.223 129.232C58.4609 130.693 56.3247 131.631 54.0567 131.939C51.5616 132.413 49.001 132.428 46.5007 131.982C45.344 131.777 44.2227 131.407 43.1715 130.882C42.0859 130.289 42.0207 129.341 42.8241 128.349C44.0834 126.793 45.5961 125.671 47.7456 125.86C49.3668 125.997 50.9952 126.164 52.6164 126.316C53.0724 126.359 53.5283 126.402 53.9843 126.41C55.4318 126.41 56.8793 126.41 58.3268 126.41C61.49 122.099 63.3421 116.968 63.6608 111.631C63.8996 109.299 63.8996 106.949 63.6608 104.618C63.27 101.614 62.7127 98.6611 60.8309 96.2076C59.8632 95.0084 58.7552 93.9296 57.5306 92.9942C56.5463 92.1981 55.3087 91.7277 54.2955 90.9605C52.3559 89.513 50.4958 88.905 48.0206 89.9617C46.6093 90.5624 44.742 90.4539 43.157 90.2078C40.1101 89.7374 37.092 89.1149 34.4721 87.2694C32.3616 85.8347 30.1645 84.5319 27.8932 83.3684C26.6798 82.7398 25.3678 82.3237 24.0139 82.138C22.9371 82.0974 21.8616 82.2468 20.8367 82.5795C20.1517 82.8051 19.4881 83.0908 18.8536 83.4335ZM68.4086 8.29414C64.4929 13.881 61.0343 19.7745 58.0662 25.9174C55.5393 30.9707 53.5665 36.2825 52.1822 41.7602C50.9373 47.0073 50.0109 52.2545 51.1327 57.6826C52.3414 63.4292 54.9252 68.3362 59.9045 71.622C64.4641 74.64 69.5086 75.3058 74.4663 72.8813C80.3938 69.9863 83.325 64.6957 84.5409 58.4064C85.1561 55.1857 84.9751 51.9578 84.729 48.6575C84.2955 43.5788 83.2257 38.5747 81.5446 33.7628C78.7302 25.366 74.7806 17.3936 69.8054 10.0673C69.4146 9.48108 68.9441 8.96722 68.4086 8.29414ZM6.51372 9.53898C7.71514 12.1517 9.05407 14.6052 10.0311 17.2758C12.5063 23.9271 13.0998 30.9257 13.1722 37.9316C13.2301 43.7215 14.3447 49.1352 17.2107 54.1652C19.7511 58.638 22.675 62.8067 27.2997 65.4122C30.7737 67.3808 34.4286 68.2493 38.525 66.6643C37.671 65.557 36.8894 64.674 36.2452 63.7042C33.9359 60.0949 32.2001 56.1495 31.0994 52.0084C29.7605 47.3041 29.4999 42.4912 29.4203 37.7072C29.3479 33.9365 30.2671 30.1513 30.6579 26.3661C30.7679 25.5704 30.6101 24.7607 30.2092 24.0646C25.8522 18.1081 20.4676 13.44 13.5485 10.7766C11.3343 9.81427 8.92349 9.39015 6.51372 9.53898ZM97.5032 69.6679C97.619 69.7981 97.7275 70.0225 97.8651 70.0514C101.592 70.8331 105.103 70.435 108.33 68.2421C113.143 64.949 116.292 60.2809 118.651 55.0916C120.281 51.8198 121.236 48.2532 121.459 44.6045C121.546 41.8832 121.857 39.1547 121.749 36.4406C121.611 32.7206 120.851 29.0078 120.953 25.3094C121.054 21.6111 121.568 18.072 123.363 14.7572C124.405 12.8537 125.534 11.0009 126.779 8.87313C125.828 8.86525 124.877 8.92572 123.934 9.05407C119.276 10.0536 114.99 12.3347 111.558 15.6402C108.415 18.6945 105.798 22.2478 103.814 26.1562C103.635 26.5129 103.532 26.9028 103.511 27.3013C103.49 27.6999 103.551 28.0985 103.691 28.4722C105.37 35.3912 106.47 42.3826 106.072 49.5477C105.856 54.7614 104.276 59.8272 101.491 64.2398C100.304 66.1287 98.8566 67.8657 97.5032 69.6679ZM98.7842 8.65601C96.9966 8.30861 97.0038 8.33033 96.0629 8.65601C89.6578 10.7404 85.2067 15.1697 81.7327 20.7209C81.1248 21.6907 81.313 22.5664 81.7762 23.558C82.9848 26.1128 84.15 28.6893 85.214 31.3093C87.4956 37.0717 88.929 43.1348 89.4696 49.3089C89.6794 51.9459 89.6066 54.5978 89.2525 57.2194C88.6807 62.0323 86.3575 66.2084 83.9546 70.312C83.6 70.9127 83.325 71.5641 82.9631 72.2878C84.6711 72.8741 86.0825 72.1503 87.3056 71.6509C95.882 68.2493 100.789 61.6705 101.947 52.7249C102.713 47.0955 102.428 41.3729 101.107 35.8472C100.384 33.0246 99.6599 30.2092 99.0303 27.3721C98.3572 24.3613 97.6624 21.3361 97.2426 18.2818C96.8373 14.9598 97.7927 11.7826 98.7987 8.65601H98.7842ZM52.696 70.8982C49.3648 65.9919 47.3488 60.3126 46.8409 54.404C46.5441 51.8602 46.5441 49.2906 46.8409 46.7468C47.507 41.8826 48.721 37.1094 50.4596 32.5179C51.3354 30.2309 52.2907 27.9728 53.1809 25.7654C50.2818 20.3328 46.4165 15.4742 41.7747 11.428C39.4702 9.4079 36.6996 7.99272 33.7121 7.30984C36.8677 12.1734 37.5118 17.2396 36.4189 22.6171C35.7531 25.9029 35.08 29.1959 34.5589 32.5107C33.5718 38.556 33.8403 44.7398 35.3478 50.6767C36.8888 57.115 40.4373 62.8965 45.4803 67.1854C47.5432 69.0004 50.0296 70.2672 52.7105 70.8693L52.696 70.8982ZM80.9221 75.9645C77.0718 77.1586 73.3445 78.2225 69.3422 78.1863C65.3337 78.2281 61.3433 77.6421 57.5162 76.4494C56.597 76.1382 55.7936 75.9789 55.0627 76.8402C53.9946 78.1678 53.4244 79.8271 53.4509 81.5309C53.4773 83.2346 54.0987 84.8754 55.2074 86.1693C55.9575 86.9617 56.818 87.6418 57.7622 88.1885C60.4933 89.6815 62.8301 91.8025 64.5799 94.3766C64.8867 94.8303 65.2599 95.2354 65.6873 95.578C67.6703 97.2498 69.4869 96.9821 70.9779 94.8108C71.3357 94.2884 71.6527 93.7391 71.926 93.1679C72.6992 91.4124 73.9959 89.9387 75.6388 88.9485C76.7389 88.326 77.9113 87.8122 79.0693 87.2983C84.0777 85.0837 85.0475 79.6266 80.9294 76.0079L80.9221 75.9645ZM23.1527 78.4686C24.1561 78.2957 25.1749 78.2278 26.1924 78.266C28.8255 78.6466 31.305 79.7376 33.3647 81.4215C34.0457 82.0213 34.7716 82.5681 35.536 83.0572C39.7916 85.6192 44.2209 87.1319 49.2872 85.46C49.1496 83.4625 48.6575 81.5084 48.9904 79.7062C49.3233 77.9041 50.4958 76.1743 51.2196 74.5749C48.8023 73.5471 46.4428 72.599 44.1268 71.5351C43.6507 71.2788 43.1278 71.121 42.5894 71.0713C42.051 71.0216 41.508 71.0808 40.993 71.2456C38.1375 72.2618 35.0452 72.4104 32.1054 71.6726C31.4942 71.5085 30.8451 71.5596 30.2671 71.8174C27.2913 73.2846 24.8178 75.6019 23.1599 78.4759L23.1527 78.4686ZM113.527 77.8534C112.217 73.786 110.118 72.5339 106.376 73.511C104.878 73.8873 103.394 74.336 101.882 74.6328C99.2112 75.1539 96.584 75.5881 93.7831 74.9802C91.3441 74.4446 88.7169 74.3505 86.1693 75.8487C88.0366 79.2141 87.6168 82.6446 86.3502 86.039C86.711 86.2732 87.1001 86.4604 87.5082 86.5963C92.6541 87.3635 97.5249 86.9292 101.629 83.2453C105.023 80.1984 108.721 77.8172 113.534 77.8607L113.527 77.8534ZM54.0784 128.219C51.4801 129.109 49.0773 128.096 46.4428 129.196C50.3511 129.978 52.0229 129.782 54.0784 128.219Z" fill="#EFA770"/>
<path d="M44.5321 136.624C45.0532 134.691 46.3849 134.619 47.637 134.452C47.985 134.384 48.3439 134.397 48.6864 134.489C51.7986 135.596 54.7659 134.684 57.6971 133.765C58.2119 133.59 58.7609 133.541 59.2985 133.621C59.8361 133.702 60.3467 133.91 60.7875 134.228C61.8153 134.901 61.8732 136.103 60.7875 136.638C59.4842 137.252 58.0999 137.676 56.6766 137.897C53.4599 138.426 50.1622 138.147 47.0797 137.087C46.2422 136.874 45.391 136.719 44.5321 136.624Z" fill="#EFA770"/>
<path d="M87.6025 138.772C87.2188 139.551 86.6122 140.199 85.8597 140.634C85.1072 141.068 84.2427 141.269 83.3758 141.211C80.1262 141.175 76.739 142.022 73.6414 140.451C73.5418 139.904 73.6625 139.34 73.977 138.882C74.2915 138.424 74.7744 138.109 75.3205 138.005C78.6069 137.314 81.9784 137.118 85.3227 137.426C86.0681 137.469 86.7702 138.258 87.6025 138.772Z" fill="#EFA770"/>
<path d="M70.2977 132.982C71.564 132.912 72.8335 132.929 74.0974 133.033C74.4372 133.092 74.7587 133.229 75.0373 133.432C75.3159 133.635 75.5441 133.9 75.7042 134.205C75.8272 134.676 75.2192 135.443 74.7705 135.928C74.3924 136.337 73.8776 136.595 73.323 136.651C70.8912 136.76 68.4449 136.847 66.0131 136.746C65.5491 136.721 65.111 136.524 64.7845 136.193C64.4579 135.863 64.2663 135.422 64.2472 134.958C64.3047 134.46 64.5292 133.997 64.8841 133.643C65.2391 133.289 65.7034 133.067 66.2013 133.011C67.5692 132.895 68.9371 132.982 70.2977 132.982Z" fill="#EFA770"/>
<path d="M55.2798 139.723C55.6779 140.758 55.6272 141.431 54.8383 141.851C54.2498 142.274 53.5869 142.584 52.8842 142.763C50.3728 143.016 47.8179 143.262 45.3644 142.393C44.6407 142.126 43.9821 141.778 43.9676 140.946C43.9531 140.114 44.59 139.716 45.3644 139.498C48.627 138.657 52.0587 138.735 55.2798 139.723Z" fill="#EFA770"/>
<path d="M79.2286 134.917C79.6339 132.999 80.4445 132.066 82.2104 131.95C84.3817 131.812 86.5529 131.95 88.7242 131.95C88.8146 131.951 88.9046 131.963 88.992 131.986C90.4395 132.326 91.2863 133.173 91.1632 134.049C91.0402 134.924 90.1355 135.417 88.5939 135.38C85.8943 135.322 83.1875 135.315 80.4879 135.257C80.0568 135.191 79.6344 135.077 79.2286 134.917Z" fill="#EFA770"/>
<path d="M88.9556 127.938C88.6517 129.219 88.0437 129.805 86.8206 129.769C84.9171 129.704 83.0137 129.769 81.1102 129.769C80.6026 129.799 80.0958 129.696 79.641 129.468C79.1861 129.241 78.7992 128.898 78.5192 128.473C78.8883 126.628 80.3647 125.933 81.8629 125.918C84.3381 125.868 87.2476 124.76 88.9556 127.938Z" fill="#EFA770"/>
<path d="M72.3531 139.174C71.9912 140.983 70.5003 141.077 69.364 141.2C67.372 141.339 65.3737 141.366 63.3786 141.28C62.8516 141.288 62.3365 141.123 61.9119 140.81C61.4872 140.498 61.1763 140.056 61.0264 139.55C62.3581 137.379 64.8261 137.625 66.773 137.488C68.7199 137.35 70.9418 137.328 72.3531 139.174Z" fill="#EFA770"/>
</g>
</svg>
