<svg width="114" height="123" viewBox="0 0 114 123" fill="none" xmlns="http://www.w3.org/2000/svg">
<g opacity="0.1">
<path d="M16.1152 71.3149C14.915 70.0034 14.9769 68.7971 15.4594 67.43C16.5296 64.4173 18.6763 62.3511 21.1879 60.5694L22.0601 59.9508C21.7592 59.6932 21.4386 59.4595 21.1013 59.2518C17.637 57.5134 15.1625 54.7482 13.0963 51.5747C10.0031 46.7865 8.44422 41.4169 7.59052 35.8554C7.20611 33.2362 7.03439 30.5902 7.07706 27.9432C7.13273 20.0743 5.15314 12.8674 0.501086 6.45843C0.32935 6.20172 0.176358 5.93295 0.0433035 5.65422C0.00618605 5.59236 0.0433037 5.50575 0 5.27067C1.23725 4.03343 2.98796 3.8664 4.65205 3.88496C6.20587 3.92739 7.75079 4.13476 9.2608 4.50358C15.128 5.86345 20.4038 9.07055 24.3119 13.653C25.3388 14.816 26.3843 15.9667 27.4978 17.2101C28.1728 15.7572 28.3216 14.1148 27.9185 12.5642C27.2621 9.74418 25.9951 7.10243 24.2068 4.82526C23.9779 4.51595 23.7304 4.20664 23.5263 3.88496C23.4582 3.77361 23.5263 3.58183 23.5263 3.21684C23.9763 3.05097 24.44 2.9247 24.912 2.83948C30.1765 2.30128 34.711 4.18189 38.8496 7.20696C42.312 9.63456 45.1885 12.8049 47.2691 16.4863C47.5189 16.8761 47.7981 17.2463 48.1042 17.5937C50.9499 11.4569 54.6802 5.83981 58.4909 0C62.3511 4.59637 64.6771 9.85468 67.1516 15.0202C68.8219 13.1086 70.2447 11.2713 71.9026 9.63197C75.1692 6.26047 79.233 3.76688 83.7184 2.3817C84.676 2.05335 85.6917 1.92832 86.7004 2.0146C87.7091 2.10088 88.6887 2.39657 89.5767 2.88279C87.1022 7.64619 85.4258 12.5766 87.1022 18.1319C88.8341 15.2067 91.0371 12.5877 93.6225 10.3805C97.4456 7.03375 101.733 4.70773 106.929 4.15097C108.686 3.88923 110.475 3.92898 112.218 4.2685C112.826 4.44871 113.422 4.66986 114 4.93043C114 5.96353 113.381 6.5636 112.825 7.19459C110.116 10.1392 108.34 13.8202 107.721 17.7731C107.393 20.8823 107.393 24.0174 107.721 27.1266C108.084 31.0765 108.063 35.0522 107.659 38.998C107.04 44.1697 105.073 48.7475 102.339 53.047C101.317 54.5161 100.19 55.9095 98.9674 57.2165C98.2622 58.0393 97.4518 58.7692 96.5857 59.6477C97.4951 60.588 98.2746 61.4355 99.0974 62.2397C100.247 63.4167 101.095 64.8533 101.572 66.4278C101.862 67.2371 101.97 68.1007 101.886 68.9565C101.803 69.8122 101.531 70.6389 101.089 71.3768C100.817 71.2593 100.545 71.2283 100.409 71.0799C98.4292 68.8343 95.5464 69.3292 93.1091 70.7334C91.6666 71.6554 90.2899 72.6765 88.989 73.7894C86.5164 75.8251 83.5384 77.1527 80.3716 77.6311C77.6257 78.0305 74.8238 77.7588 72.2058 76.8392C71.4674 76.6221 70.6781 76.6547 69.9602 76.932C67.232 78.0146 64.8008 79.4746 63.4956 82.3388C62.9062 83.4311 62.5741 84.6434 62.5243 85.8835C62.5243 87.0589 62.5243 88.2281 62.5243 89.4035C62.5329 94.3138 61.8838 99.2032 60.5942 103.941C60.1125 105.437 59.555 106.907 58.9239 108.346C60.3406 108.346 61.7387 108.445 63.1182 108.346C64.4977 108.247 64.5348 108.123 65.5927 109.286C64.8627 111.692 64.7142 111.816 62.4501 111.822C60.8911 111.822 59.326 111.86 57.7609 111.822C55.4596 111.754 54.377 109.769 55.5277 107.795C56.9844 105.219 57.8824 102.365 58.163 99.419C58.5404 96.1032 58.7816 92.775 59.0662 89.4468C59.1343 88.5807 59.4003 87.5414 58.1197 87.0094C57.5011 87.8074 57.7857 88.6797 57.7485 89.4839C57.5691 93.7339 57.4516 97.9962 56.3628 102.141C55.5153 105.364 54.1048 108.253 51.4757 110.461C49.9696 111.71 48.1436 112.512 46.205 112.775C44.0724 113.18 41.8837 113.193 39.7466 112.812C38.7578 112.637 37.7995 112.32 36.9009 111.872C35.973 111.365 35.9173 110.554 36.604 109.707C37.6804 108.377 38.9733 107.418 40.8106 107.579C42.1963 107.696 43.5882 107.838 44.974 107.968C45.3637 108.005 45.7534 108.043 46.1432 108.049C47.3804 108.049 48.6176 108.049 49.8549 108.049C52.5587 104.365 54.1418 99.9783 54.4142 95.4165C54.6183 93.4236 54.6183 91.415 54.4142 89.422C54.0801 86.8548 53.6038 84.3308 51.9953 82.2336C51.1682 81.2086 50.2211 80.2865 49.1744 79.487C48.3331 78.8065 47.2752 78.4044 46.4092 77.7486C44.7513 76.5114 43.1614 75.9917 41.0457 76.8949C39.8394 77.4084 38.2433 77.3156 36.8885 77.1052C34.2841 76.7031 31.7045 76.1711 29.4651 74.5936C27.6611 73.3674 25.7831 72.2538 23.8418 71.2593C22.8046 70.722 21.6831 70.3663 20.5259 70.2076C19.6055 70.1728 18.6862 70.3006 17.8102 70.585C17.2247 70.7777 16.6575 71.022 16.1152 71.3149ZM58.4723 7.08943C55.1255 11.8648 52.1691 16.9023 49.6322 22.1529C47.4723 26.4722 45.786 31.0125 44.6028 35.6946C43.5387 40.1796 42.7469 44.6646 43.7058 49.3043C44.7389 54.2162 46.9474 58.4104 51.2035 61.219C55.1008 63.7987 59.4126 64.3678 63.6502 62.2954C68.7167 59.8209 71.2222 55.2988 72.2615 49.9229C72.7873 47.17 72.6326 44.411 72.4223 41.5901C72.0518 37.2491 71.1373 32.9718 69.7003 28.8588C67.2948 21.6816 63.9188 14.8672 59.6663 8.60505C59.3322 8.10397 58.9301 7.66475 58.4723 7.08943ZM5.56761 8.15346C6.59453 10.3867 7.73898 12.4838 8.57413 14.7665C10.6898 20.4517 11.1971 26.4338 11.259 32.4221C11.3084 37.3711 12.2611 41.9984 14.7109 46.2978C16.8822 50.1209 19.3815 53.6842 23.3345 55.9112C26.3039 57.5939 29.4279 58.3362 32.9293 56.9814C32.1994 56.0349 31.5313 55.2802 30.9807 54.4513C29.0068 51.3662 27.5231 47.9939 26.5823 44.4543C25.4378 40.4332 25.2151 36.3194 25.1471 32.2303C25.0852 29.0073 25.8708 25.7719 26.2049 22.5365C26.2989 21.8563 26.164 21.1642 25.8214 20.5692C22.0972 15.478 17.4947 11.4878 11.5806 9.21131C9.68797 8.38876 7.62737 8.02625 5.56761 8.15346ZM83.341 59.5487C83.44 59.6601 83.5328 59.8518 83.6503 59.8766C86.8362 60.5447 89.8366 60.2045 92.5956 58.33C96.7095 55.5153 99.4005 51.5252 101.417 47.0896C102.811 44.293 103.627 41.2445 103.817 38.1258C103.892 35.7997 104.158 33.4675 104.065 31.1477C103.947 27.968 103.298 24.7944 103.384 21.6333C103.471 18.4721 103.91 15.447 105.444 12.6137C106.335 10.9868 107.3 9.40308 108.364 7.58432C107.551 7.57758 106.739 7.62927 105.933 7.73898C101.951 8.5933 98.2875 10.5431 95.3547 13.3685C92.6677 15.9791 90.4311 19.0163 88.7354 22.3571C88.5824 22.662 88.494 22.9952 88.4759 23.3359C88.4578 23.6765 88.5104 24.0173 88.6302 24.3367C90.0655 30.2507 91.0058 36.2266 90.6655 42.351C90.4807 46.8074 89.1305 51.1374 86.7496 54.909C85.7351 56.5236 84.4978 58.0083 83.341 59.5487ZM84.436 7.39874C82.908 7.1018 82.9142 7.12036 82.1099 7.39874C76.6351 9.18038 72.8306 12.9664 69.8612 17.7112C69.3416 18.5401 69.5024 19.2887 69.8983 20.1362C70.9314 22.3199 71.9274 24.5222 72.8368 26.7617C74.787 31.6871 76.0123 36.8695 76.4743 42.1468C76.6536 44.4009 76.5914 46.6676 76.2887 48.9084C75.8 53.0222 73.8142 56.5917 71.7604 60.0993C71.4572 60.6127 71.2222 61.1695 70.9129 61.7881C72.3728 62.2892 73.5791 61.6706 74.6246 61.2437C81.9553 58.3362 86.1496 52.7129 87.1394 45.0667C87.7938 40.2549 87.5504 35.3635 86.4218 30.6404C85.8031 28.2278 85.1845 25.8214 84.6463 23.3963C84.071 20.8229 83.4771 18.237 83.1183 15.6264C82.7719 12.7869 83.5885 10.0712 84.4483 7.39874H84.436ZM45.042 60.6004C42.1947 56.4067 40.4714 51.5523 40.0373 46.5019C39.7837 44.3276 39.7837 42.1312 40.0373 39.9569C40.6067 35.7992 41.6444 31.7193 43.1305 27.7948C43.879 25.8399 44.6956 23.9098 45.4565 22.023C42.9784 17.3795 39.6746 13.2266 35.707 9.76807C33.7373 8.04142 31.369 6.83179 28.8155 6.2481C31.5127 10.4053 32.0633 14.7356 31.1292 19.332C30.56 22.1405 29.9847 24.9553 29.5393 27.7886C28.6955 32.9558 28.925 38.2414 30.2136 43.316C31.5308 48.8192 34.5638 53.7609 38.8743 57.4268C40.6376 58.9782 42.7628 60.061 45.0544 60.5756L45.042 60.6004ZM69.1683 64.9307C65.8773 65.9515 62.6913 66.8608 59.2704 66.8299C55.8441 66.8656 52.4333 66.3647 49.162 65.3452C48.3764 65.0792 47.6897 64.9431 47.0649 65.6793C46.152 66.8141 45.6646 68.2324 45.6872 69.6886C45.7098 71.1449 46.2409 72.5474 47.1886 73.6533C47.8298 74.3306 48.5653 74.9119 49.3724 75.3793C51.7067 76.6554 53.7042 78.4683 55.1998 80.6685C55.462 81.0564 55.7811 81.4026 56.1463 81.6954C57.8413 83.1245 59.3941 82.8956 60.6684 81.0397C60.9743 80.5932 61.2452 80.1237 61.4788 79.6354C62.1398 78.1349 63.2481 76.8753 64.6524 76.0288C65.5927 75.4968 66.5949 75.0576 67.5847 74.6184C71.8655 72.7254 72.6945 68.061 69.1745 64.9679L69.1683 64.9307ZM19.7898 67.0712C20.6475 66.9234 21.5183 66.8653 22.388 66.898C24.6386 67.2233 26.758 68.1558 28.5186 69.5952C29.1006 70.1078 29.7211 70.5752 30.3744 70.9933C34.0119 73.1832 37.7979 74.4761 42.1283 73.0471C42.0107 71.3397 41.5901 69.6694 41.8746 68.129C42.1592 66.5886 43.1614 65.1101 43.78 63.743C41.7138 62.8645 39.6971 62.0541 37.7175 61.1448C37.3105 60.9257 36.8636 60.7908 36.4034 60.7483C35.9431 60.7058 35.4791 60.7565 35.0389 60.8973C32.5981 61.7659 29.9549 61.8929 27.4422 61.2623C26.9197 61.122 26.3649 61.1657 25.8708 61.386C23.3272 62.6401 21.213 64.6208 19.796 67.0774L19.7898 67.0712ZM97.0373 66.5453C95.9176 63.0687 94.1236 61.9985 90.9253 62.8336C89.6448 63.1553 88.3766 63.5388 87.0837 63.7925C84.801 64.2379 82.5554 64.6091 80.1613 64.0894C78.0765 63.6316 75.8309 63.5512 73.6534 64.8318C75.2494 67.7084 74.8906 70.6406 73.808 73.542C74.1164 73.7421 74.449 73.9022 74.7978 74.0183C79.1962 74.6741 83.3596 74.3029 86.8672 71.1541C89.7685 68.5497 92.9297 66.5144 97.0435 66.5515L97.0373 66.5453ZM46.2236 109.595C44.0027 110.356 41.9489 109.49 39.6971 110.431C43.0377 111.099 44.4667 110.932 46.2236 109.595Z" fill="#EFA770"/>
<path d="M38.0639 116.779C38.5093 115.127 39.6476 115.066 40.7178 114.923C41.0153 114.865 41.3221 114.876 41.6148 114.954C44.2749 115.901 46.8113 115.121 49.3167 114.336C49.7567 114.186 50.226 114.144 50.6855 114.213C51.1451 114.282 51.5814 114.46 51.9583 114.732C52.8367 115.307 52.8862 116.334 51.9583 116.792C50.8443 117.316 49.661 117.678 48.4445 117.868C45.6949 118.32 42.8763 118.082 40.2415 117.175C39.5256 116.993 38.798 116.861 38.0639 116.779Z" fill="#EFA770"/>
<path d="M74.8784 118.616C74.5504 119.282 74.0319 119.836 73.3887 120.207C72.7455 120.578 72.0066 120.75 71.2656 120.7C68.488 120.67 65.5928 121.393 62.9451 120.051C62.86 119.584 62.9631 119.101 63.232 118.71C63.5008 118.318 63.9136 118.049 64.3803 117.96C67.1894 117.369 70.0712 117.202 72.9297 117.465C73.5669 117.502 74.167 118.176 74.8784 118.616Z" fill="#EFA770"/>
<path d="M60.0871 113.667C61.1694 113.607 62.2546 113.621 63.3349 113.71C63.6253 113.761 63.9002 113.877 64.1383 114.051C64.3764 114.225 64.5714 114.451 64.7083 114.712C64.8134 115.114 64.2938 115.77 63.9102 116.184C63.587 116.535 63.147 116.755 62.673 116.803C60.5944 116.896 58.5034 116.97 56.4249 116.883C56.0282 116.862 55.6538 116.694 55.3746 116.411C55.0955 116.129 54.9318 115.752 54.9154 115.355C54.9645 114.93 55.1565 114.534 55.4598 114.232C55.7632 113.929 56.1601 113.739 56.5857 113.691C57.7549 113.592 58.9241 113.667 60.0871 113.667Z" fill="#EFA770"/>
<path d="M47.2505 119.428C47.5907 120.313 47.5474 120.888 46.8731 121.247C46.3701 121.609 45.8035 121.874 45.2028 122.026C43.0562 122.243 40.8724 122.453 38.7753 121.711C38.1566 121.482 37.5937 121.185 37.5813 120.474C37.569 119.762 38.1133 119.422 38.7753 119.236C41.5639 118.517 44.4972 118.584 47.2505 119.428Z" fill="#EFA770"/>
<path d="M67.7207 115.321C68.0671 113.681 68.76 112.883 70.2694 112.784C72.1253 112.667 73.9812 112.784 75.8371 112.784C75.9144 112.785 75.9913 112.795 76.066 112.815C77.3032 113.106 78.027 113.83 77.9219 114.578C77.8167 115.327 77.0434 115.748 75.7257 115.717C73.4183 115.667 71.1046 115.661 68.7971 115.611C68.4286 115.555 68.0676 115.457 67.7207 115.321Z" fill="#EFA770"/>
<path d="M76.035 109.355C75.7752 110.45 75.2555 110.951 74.21 110.92C72.583 110.864 70.9561 110.92 69.3291 110.92C68.8952 110.946 68.462 110.858 68.0733 110.663C67.6845 110.469 67.3537 110.176 67.1144 109.813C67.4299 108.235 68.6919 107.641 69.9724 107.629C72.0881 107.586 74.575 106.639 76.035 109.355Z" fill="#EFA770"/>
<path d="M61.844 118.959C61.5347 120.506 60.2603 120.586 59.289 120.691C57.5863 120.81 55.8783 120.833 54.173 120.759C53.7225 120.766 53.2823 120.625 52.9193 120.358C52.5563 120.091 52.2906 119.713 52.1625 119.281C53.3007 117.425 55.4103 117.635 57.0744 117.518C58.7385 117.4 60.6377 117.382 61.844 118.959Z" fill="#EFA770"/>
</g>
</svg>
