<svg width="124" height="133" viewBox="0 0 124 133" fill="none" xmlns="http://www.w3.org/2000/svg">
<g opacity="0.1">
<path d="M17.5288 77.5706C16.2234 76.1441 16.2906 74.832 16.8155 73.3449C17.9796 70.0679 20.3145 67.8205 23.0465 65.8826L23.9952 65.2097C23.6679 64.9295 23.3191 64.6753 22.9522 64.4493C19.1841 62.5585 16.4925 59.5507 14.2451 56.0988C10.8806 50.8906 9.18494 45.0499 8.25635 39.0006C7.83822 36.1517 7.65144 33.2735 7.69785 30.3944C7.75841 21.8352 5.60517 13.9961 0.545041 7.02496C0.35824 6.74573 0.191828 6.45339 0.047102 6.15021C0.00672869 6.08292 0.0471022 5.98871 0 5.73301C1.34578 4.38724 3.25006 4.20556 5.06013 4.22574C6.75025 4.2719 8.43068 4.49746 10.0732 4.89863C16.455 6.37778 22.1936 9.86621 26.4445 14.8507C27.5615 16.1157 28.6987 17.3673 29.9099 18.7198C30.6442 17.1394 30.8059 15.3529 30.3675 13.6664C29.6535 10.5989 28.2754 7.72545 26.3302 5.24853C26.0812 4.91209 25.812 4.57565 25.59 4.22574C25.516 4.10462 25.59 3.89603 25.59 3.49902C26.0795 3.31859 26.5838 3.18125 27.0972 3.08856C32.8235 2.50315 37.7558 4.54873 42.2574 7.83915C46.0236 10.4797 49.1524 13.9281 51.4155 17.9325C51.6872 18.3565 51.9909 18.7591 52.3239 19.137C55.4191 12.4619 59.4767 6.35207 63.6217 0C67.8205 4.99956 70.3506 10.7191 73.0421 16.3377C74.8589 14.2585 76.4066 12.26 78.2099 10.4769C81.763 6.80963 86.1833 4.0973 91.0621 2.59062C92.1038 2.23347 93.2085 2.09747 94.3057 2.19132C95.4029 2.28517 96.4685 2.6068 97.4343 3.13566C94.7428 8.31691 92.9193 13.6798 94.7428 19.7224C96.6265 16.5406 99.0228 13.6918 101.835 11.2911C105.993 7.65075 110.657 5.12069 116.309 4.51509C118.22 4.2304 120.166 4.27363 122.062 4.64293C122.724 4.83895 123.371 5.07949 124 5.36292C124 6.48665 123.327 7.13935 122.722 7.8257C119.775 11.0287 117.843 15.0325 117.17 19.3321C116.814 22.7141 116.814 26.1242 117.17 29.5062C117.565 33.8025 117.542 38.1269 117.103 42.4189C116.43 48.0443 114.29 53.0236 111.316 57.7002C110.204 59.2982 108.979 60.8139 107.649 62.2355C106.882 63.1304 106 63.9244 105.058 64.8799C106.047 65.9027 106.895 66.8246 107.79 67.6993C109.04 68.9796 109.963 70.5421 110.482 72.2548C110.798 73.1351 110.914 74.0745 110.824 75.0053C110.733 75.9361 110.437 76.8353 109.957 77.6379C109.661 77.5101 109.365 77.4764 109.217 77.3149C107.063 74.8724 103.928 75.4107 101.277 76.9381C99.7075 77.941 98.2101 79.0517 96.7951 80.2622C94.1056 82.4764 90.8664 83.9204 87.4218 84.4408C84.4349 84.8753 81.3873 84.5798 78.5396 83.5795C77.7365 83.3433 76.8779 83.3788 76.097 83.6805C73.1296 84.858 70.4851 86.446 69.0653 89.5615C68.4243 90.7496 68.063 92.0683 68.0089 93.4172C68.0089 94.6957 68.0089 95.9674 68.0089 97.2459C68.0183 102.587 67.3122 107.905 65.9095 113.059C65.3855 114.686 64.7792 116.285 64.0927 117.85C65.6336 117.85 67.1543 117.957 68.6549 117.85C70.1554 117.742 70.1958 117.608 71.3464 118.873C70.5524 121.49 70.3909 121.625 67.9282 121.631C66.2325 121.631 64.5301 121.672 62.8277 121.631C60.3245 121.557 59.1469 119.397 60.3985 117.251C61.9831 114.449 62.9598 111.345 63.265 108.14C63.6755 104.533 63.9379 100.913 64.2475 97.293C64.3215 96.351 64.6108 95.2205 63.2179 94.6418C62.545 95.5098 62.8546 96.4586 62.8142 97.3334C62.6191 101.956 62.4912 106.592 61.3069 111.101C60.3851 114.606 58.8509 117.749 55.9911 120.151C54.3528 121.509 52.3667 122.381 50.2581 122.668C47.9384 123.108 45.5577 123.122 43.2331 122.708C42.1576 122.517 41.1152 122.173 40.1378 121.685C39.1285 121.133 39.0679 120.252 39.8148 119.33C40.9857 117.883 42.392 116.84 44.3905 117.015C45.8978 117.143 47.4118 117.298 48.919 117.439C49.343 117.48 49.7669 117.52 50.1908 117.527C51.5366 117.527 52.8824 117.527 54.2281 117.527C57.1691 113.519 58.8911 108.748 59.1873 103.786C59.4094 101.619 59.4094 99.4338 59.1873 97.2661C58.824 94.4736 58.3058 91.7282 56.5563 89.4471C55.6567 88.3322 54.6265 87.3291 53.488 86.4595C52.5728 85.7193 51.4222 85.2819 50.4801 84.5687C48.6768 83.2229 46.9475 82.6577 44.6462 83.6401C43.3341 84.1986 41.598 84.0976 40.1244 83.8689C37.2915 83.4315 34.4856 82.8528 32.0497 81.1369C30.0875 79.8031 28.0448 78.5918 25.9331 77.5101C24.805 76.9257 23.5852 76.5388 22.3265 76.3662C21.3253 76.3284 20.3254 76.4673 19.3725 76.7766C18.7357 76.9863 18.1187 77.252 17.5288 77.5706ZM63.6015 7.71131C59.961 12.9055 56.7454 18.3849 53.9859 24.0962C51.6365 28.7944 49.8023 33.7329 48.5153 38.8257C47.3579 43.7041 46.4966 48.5826 47.5396 53.6292C48.6633 58.972 51.0656 63.5342 55.695 66.5891C59.9342 69.395 64.6243 70.0141 69.2336 67.7599C74.7445 65.0684 77.4697 60.1495 78.6002 54.3021C79.1721 51.3078 79.0039 48.3067 78.7751 45.2383C78.3721 40.5165 77.3774 35.8641 75.8144 31.3903C73.1978 23.5835 69.5257 16.1713 64.9002 9.35988C64.5368 8.81484 64.0994 8.3371 63.6015 7.71131ZM6.056 8.86868C7.173 11.2978 8.41784 13.5789 9.32624 16.0619C11.6275 22.2457 12.1793 28.7525 12.2466 35.2661C12.3004 40.6492 13.3367 45.6824 16.0013 50.359C18.3631 54.5175 21.0816 58.3933 25.3814 60.8157C28.6112 62.646 32.0093 63.4534 35.8179 61.9798C35.0239 60.9503 34.2972 60.1294 33.6983 59.2277C31.5513 55.872 29.9374 52.2038 28.914 48.3538C27.6692 43.98 27.427 39.5053 27.3529 35.0575C27.2857 31.5518 28.1402 28.0326 28.5036 24.5133C28.6059 23.7735 28.4591 23.0207 28.0864 22.3736C24.0356 16.8357 19.0293 12.4955 12.5965 10.0193C10.5378 9.12462 8.29644 8.7303 6.056 8.86868ZM90.6516 64.7723C90.7593 64.8934 90.8602 65.102 90.9881 65.1289C94.4534 65.8556 97.717 65.4855 100.718 63.4467C105.193 60.3851 108.12 56.0449 110.313 51.2203C111.829 48.1784 112.717 44.8625 112.924 41.4701C113.005 38.9401 113.294 36.4033 113.193 33.88C113.066 30.4213 112.359 26.9694 112.453 23.5309C112.547 20.0925 113.025 16.802 114.694 13.7202C115.663 11.9505 116.713 10.2279 117.87 8.24962C116.986 8.24228 116.102 8.2985 115.226 8.41784C110.895 9.34709 106.909 11.4679 103.719 14.5411C100.796 17.3808 98.3636 20.6844 96.5192 24.3182C96.3528 24.6498 96.2567 25.0123 96.237 25.3829C96.2173 25.7534 96.2744 26.124 96.4048 26.4714C97.9659 32.9043 98.9887 39.4044 98.6186 46.066C98.4176 50.9133 96.949 55.6231 94.3592 59.7256C93.2557 61.4819 91.9099 63.0968 90.6516 64.7723ZM91.8426 8.04775C90.1806 7.72477 90.1873 7.74495 89.3126 8.04775C83.3575 9.98567 79.2192 14.1038 75.9894 19.2648C75.4241 20.1665 75.5991 20.9807 76.0297 21.9025C77.1535 24.2778 78.2368 26.6733 79.226 29.1092C81.3473 34.4667 82.68 40.1037 83.1825 45.8439C83.3776 48.2957 83.31 50.7612 82.9807 53.1986C82.4491 57.6733 80.2891 61.5559 78.0551 65.3712C77.7254 65.9297 77.4697 66.5353 77.1333 67.2081C78.7213 67.7532 80.0334 67.0803 81.1706 66.616C89.1444 63.4534 93.7065 57.3369 94.7832 49.02C95.495 43.7861 95.2303 38.4656 94.0026 33.3282C93.3297 30.7039 92.6568 28.0864 92.0714 25.4487C91.4456 22.6494 90.7997 19.8368 90.4094 16.9972C90.0326 13.9086 90.9208 10.9546 91.8561 8.04775H91.8426ZM48.9931 65.9162C45.8959 61.3546 44.0216 56.0744 43.5494 50.5811C43.2735 48.216 43.2735 45.8269 43.5494 43.4619C44.1687 38.9395 45.2974 34.5017 46.9138 30.2329C47.728 28.1066 48.6162 26.0072 49.4439 23.9548C46.7485 18.904 43.1548 14.3868 38.8392 10.6249C36.6967 8.7468 34.1207 7.43107 31.3432 6.79618C34.277 11.318 34.8758 16.0282 33.8598 21.0278C33.2407 24.0827 32.6149 27.1443 32.1305 30.2262C31.2127 35.8466 31.4623 41.5959 32.8639 47.1157C34.2966 53.1016 37.5957 58.4768 42.2844 62.4643C44.2023 64.1517 46.514 65.3296 49.0065 65.8893L48.9931 65.9162ZM75.2357 70.6264C71.656 71.7367 68.1906 72.7258 64.4695 72.6922C60.7427 72.731 57.0327 72.1861 53.4745 71.0773C52.6199 70.7879 51.873 70.6399 51.1934 71.4406C50.2004 72.675 49.6703 74.2177 49.6949 75.8017C49.7195 77.3857 50.2972 78.9112 51.328 80.1142C52.0254 80.8509 52.8254 81.4832 53.7033 81.9915C56.2424 83.3796 58.4151 85.3515 60.0419 87.7447C60.3271 88.1666 60.6741 88.5431 61.0714 88.8617C62.9151 90.4161 64.6041 90.1671 65.9902 88.1484C66.3229 87.6627 66.6176 87.1521 66.8717 86.621C67.5906 84.9889 68.7962 83.6187 70.3236 82.6981C71.3464 82.1194 72.4365 81.6416 73.5131 81.1639C78.1695 79.1048 79.0712 74.0312 75.2425 70.6668L75.2357 70.6264ZM21.5257 72.9546C22.4587 72.7939 23.4058 72.7307 24.3519 72.7662C26.7999 73.1201 29.1052 74.1344 31.0202 75.7C31.6533 76.2577 32.3282 76.7661 33.0389 77.2207C36.9954 79.6028 41.1135 81.0091 45.8237 79.4547C45.6959 77.5975 45.2383 75.7807 45.5479 74.1053C45.8574 72.4298 46.9475 70.8216 47.6204 69.3345C45.3729 68.379 43.1793 67.4975 41.0261 66.5083C40.5834 66.27 40.0972 66.1234 39.5966 66.0771C39.096 66.0309 38.5913 66.086 38.1124 66.2392C35.4576 67.184 32.5826 67.3221 29.8494 66.6362C29.2811 66.4836 28.6776 66.5311 28.1402 66.7708C25.3735 68.1348 23.0738 70.2893 21.5325 72.9613L21.5257 72.9546ZM105.549 72.3827C104.331 68.601 102.38 67.4369 98.9012 68.3453C97.5084 68.6952 96.1289 69.1124 94.7226 69.3883C92.2396 69.8728 89.7971 70.2765 87.193 69.7113C84.9253 69.2134 82.4827 69.1259 80.1142 70.5188C81.8502 73.6477 81.46 76.8372 80.2824 79.993C80.6178 80.2107 80.9796 80.3848 81.359 80.5112C86.1433 81.2244 90.6718 80.8207 94.4871 77.3957C97.6429 74.5628 101.081 72.349 105.556 72.3894L105.549 72.3827ZM50.2783 119.209C47.8626 120.037 45.6286 119.095 43.1793 120.117C46.8129 120.844 48.3673 120.662 50.2783 119.209Z" fill="#EFA770"/>
<path d="M41.4028 127.023C41.8873 125.226 43.1254 125.159 44.2895 125.004C44.6131 124.941 44.9468 124.953 45.2652 125.038C48.1587 126.068 50.9175 125.22 53.6427 124.365C54.1213 124.203 54.6318 124.157 55.1316 124.232C55.6314 124.307 56.1061 124.5 56.516 124.796C57.4715 125.422 57.5253 126.539 56.516 127.037C55.3043 127.607 54.0172 128.001 52.694 128.207C49.7033 128.699 46.6373 128.44 43.7714 127.454C42.9928 127.256 42.2014 127.112 41.4028 127.023Z" fill="#EFA770"/>
<path d="M81.4467 129.021C81.0899 129.745 80.526 130.348 79.8263 130.751C79.1267 131.155 78.323 131.342 77.517 131.288C74.4957 131.255 71.3466 132.042 68.4666 130.582C68.3741 130.073 68.4862 129.549 68.7787 129.123C69.0711 128.697 69.5201 128.404 70.0277 128.307C73.0832 127.665 76.2178 127.483 79.3271 127.769C80.0202 127.809 80.6729 128.543 81.4467 129.021Z" fill="#EFA770"/>
<path d="M65.3579 123.637C66.5352 123.572 67.7155 123.588 68.8906 123.684C69.2065 123.74 69.5054 123.867 69.7645 124.056C70.0235 124.245 70.2356 124.491 70.3844 124.775C70.4988 125.212 69.9336 125.925 69.5164 126.376C69.1648 126.757 68.6862 126.996 68.1706 127.049C65.9097 127.15 63.6353 127.231 61.3744 127.136C60.943 127.113 60.5357 126.93 60.2321 126.623C59.9285 126.316 59.7503 125.906 59.7325 125.474C59.786 125.012 59.9947 124.581 60.3247 124.252C60.6547 123.923 61.0864 123.716 61.5494 123.664C62.8211 123.557 64.0929 123.637 65.3579 123.637Z" fill="#EFA770"/>
<path d="M51.3953 129.904C51.7654 130.867 51.7183 131.492 50.9848 131.883C50.4377 132.277 49.8214 132.564 49.168 132.731C46.8331 132.966 44.4578 133.195 42.1767 132.387C41.5038 132.138 40.8914 131.815 40.878 131.042C40.8645 130.268 41.4567 129.898 42.1767 129.696C45.2099 128.914 48.4005 128.986 51.3953 129.904Z" fill="#EFA770"/>
<path d="M73.6611 125.437C74.038 123.653 74.7916 122.785 76.4334 122.678C78.4521 122.55 80.4708 122.678 82.4895 122.678C82.5735 122.679 82.6572 122.69 82.7385 122.711C84.0842 123.028 84.8715 123.815 84.7571 124.629C84.6427 125.443 83.8016 125.901 82.3684 125.867C79.8585 125.813 77.3419 125.807 74.832 125.753C74.4312 125.691 74.0385 125.585 73.6611 125.437Z" fill="#EFA770"/>
<path d="M82.7047 118.947C82.4221 120.138 81.8568 120.684 80.7197 120.65C78.95 120.589 77.1802 120.65 75.4105 120.65C74.9386 120.678 74.4675 120.582 74.0446 120.371C73.6217 120.159 73.262 119.84 73.0016 119.445C73.3448 117.73 74.7175 117.084 76.1103 117.07C78.4116 117.023 81.1167 115.993 82.7047 118.947Z" fill="#EFA770"/>
<path d="M67.2689 129.394C66.9325 131.076 65.5463 131.164 64.4899 131.278C62.6378 131.407 60.7799 131.432 58.9251 131.352C58.4351 131.359 57.9562 131.206 57.5614 130.916C57.1666 130.625 56.8775 130.214 56.7382 129.744C57.9763 127.725 60.2708 127.954 62.0809 127.826C63.891 127.698 65.9568 127.678 67.2689 129.394Z" fill="#EFA770"/>
</g>
</svg>
