<svg preserveAspectRatio="none" width="100%" height="100%" overflow="visible" style="display: block;" viewBox="0 0 137 137" fill="none" xmlns="http://www.w3.org/2000/svg">
<g id="image 6 [Vectorized]" clip-path="url(#clip0_0_31)">
<path id="Vector" d="M116.63 20.3098C143.27 47.1163 143.097 90.4559 116.242 117.048C89.3866 143.64 46.0473 143.387 19.5047 116.483C20.5563 116.045 22.5667 113.614 23.3229 112.646C24.2055 113.216 25.7268 114.945 26.5506 115.721C28.4657 117.524 30.6632 119.159 32.8438 120.622C43.457 127.666 55.9485 131.344 68.6854 131.176C82.8026 131.134 96.4982 126.358 107.579 117.612C109.291 116.244 113.039 112.654 114.612 111.015C122.005 103.277 127.121 93.1017 129.558 82.7153C130.479 78.7847 131.456 71.966 131.323 67.9547C130.848 53.6075 125.978 39.1115 116.556 28.1429C115.369 26.7613 114.156 25.2484 112.857 23.9712C113.269 23.2759 115.886 20.7995 116.63 20.3098Z" fill="var(--fill-0, #E94F0C)"/>
<path id="Vector_2" d="M19.5045 116.482C-6.96929 89.6478 -6.71685 46.4451 20.0688 19.9221C46.8544 -6.60081 90.058 -6.42753 116.63 20.3094C115.886 20.7991 113.269 23.2755 112.857 23.9708C111.472 22.8601 110.127 21.4778 108.756 20.3285C107.254 19.0692 105.587 17.8156 103.977 16.7043C91.1613 7.97237 75.6159 4.17647 60.2173 6.01847C56.0954 6.47322 53.1988 7.40741 49.313 8.60205C36.9155 12.4134 26.7753 19.3466 18.6281 29.4715C9.19999 41.188 3.54357 58.7389 5.12762 73.7742C6.59832 87.7323 12.9327 102.939 23.3228 112.645C22.5666 113.614 20.5561 116.045 19.5045 116.482Z" fill="var(--fill-0, #009841)"/>
<path id="Vector_3" d="M69.3265 27.7457C71.1166 29.4182 75.1959 37.4715 76.3166 40.0512C80.7426 34.6822 86.5001 28.2924 94.2217 29.6417C91.6451 34.8689 91.3586 36.9484 92.2509 42.5837C96.5598 35.7481 106.108 28.1763 114.586 31.6687C105.389 41.3339 110.372 47.0931 108.945 58.8523C108.253 64.556 104.657 71.9156 99.9614 75.427C103.094 78.2055 104.839 80.4408 104.069 84.8551C103.559 84.5647 102.363 83.7009 101.883 83.5755C97.9235 82.5418 94.1189 87.1093 90.8132 88.6478C87.1799 90.3383 83.3534 90.2196 79.7343 88.9759C73.6394 90.5182 72.3258 93.6953 72.2046 99.5367C72.1072 104.236 71.4928 111.497 68.8371 115.4C70.2126 115.308 73.1769 114.969 74.5303 115.358C74.7915 115.434 74.8108 115.636 74.8957 115.873C74.4961 118.471 70.4341 118.409 68.5803 117.734C67.6148 117.383 67.0948 116.63 66.4586 115.877C67.5342 113.748 68.5263 111.771 68.9925 109.41C69.7466 105.592 69.8567 101.718 69.7517 97.8412C69.2783 97.6104 68.7785 97.3117 68.3166 97.0487C68.311 100.434 68.3869 104.018 67.833 107.343C66.884 114.992 62.5463 119.481 54.7286 118.348C53.5309 118.174 52.5167 118.285 51.5388 117.386C50.9916 116.085 53.3619 114.498 54.195 114.448C56.8297 114.289 59.5986 114.971 62.2918 115.135C66.1831 110.002 67.0594 104.086 66.0581 97.8052C65.565 94.7116 63.8397 92.062 61.0571 90.5758C59.9344 89.9761 58.567 89.3203 57.5261 88.618C52.8829 89.7784 49.841 89.7359 45.6257 87.0966C41.6752 84.6231 39.3525 82.8791 34.6537 84.7455C33.8732 80.8282 37.0618 77.2254 40.35 75.5739C31.0884 71.5364 28.3215 60.4833 28.045 51.2679C27.9284 47.3797 27.6191 43.8117 26.4999 40.0562C25.4941 36.6811 23.8175 34.3748 21.819 31.5661C23.6099 30.8284 25.1047 30.7198 27.0102 30.9014C34.704 31.6349 39.9645 36.3348 44.6721 42.0038C45.379 36.1559 44.4178 35.2159 41.3366 30.4089L41.4603 30.1743C42.3874 29.6468 44.5115 29.8758 45.5642 30.0475C52.4154 31.165 57.3579 36.5576 61.2243 41.9808C62.6126 37.4978 67.134 31.8155 69.3265 27.7457Z" fill="var(--fill-0, black)"/>
<path id="Vector_4" d="M69.4041 32.6682C69.9168 33.2427 72.3738 37.2716 72.8232 38.0887C77.476 46.5077 81.3032 55.0972 81.051 64.9367C80.8619 72.3022 75.9831 78.9881 68.1315 78.6461C66.4267 78.293 64.7722 77.8394 63.3554 76.8083C60.2517 74.5498 57.66 71.224 57.0345 67.3732C55.7896 59.7097 58.207 53.759 61.2623 47.0646C63.9668 41.1388 65.776 37.9818 69.4041 32.6682Z" fill="var(--fill-0, #FFE1CA)"/>
<path id="Vector_5" d="M25.878 33.5582C27.1009 33.8375 28.4383 33.8821 29.696 34.1869C35.2879 35.542 40.539 40.0271 43.5612 44.7891C43.3901 45.5887 43.2267 46.5662 43.1216 47.3887C42.2094 54.5191 42.4808 62.2252 45.7256 68.771C46.5688 70.4721 47.6432 71.8779 48.7639 73.3675L48.8455 73.544L48.6977 73.7351C43.7969 75.1666 39.4999 72.3815 36.3713 68.9391C29.1131 60.9529 31.6453 51.9845 29.6398 42.446C28.9266 39.0536 27.6694 36.5044 25.878 33.5582Z" fill="var(--fill-0, #FFE1CA)"/>
<path id="Vector_6" d="M109.898 33.208L110.24 33.1397C110.249 33.2898 108.361 35.9767 108.071 36.5127C107.298 37.9161 106.743 39.4286 106.424 40.9987C105.034 47.984 107.886 56.0735 105.271 63.1615C103.561 67.7971 100.847 72.4662 96.379 74.9801C94.5945 75.9837 90.927 76.3351 89.0672 75.7236L89.0138 75.5402C95.6567 68.9105 96.1693 59.4887 94.2533 50.8245C93.9175 49.3045 93.5913 47.737 93.298 46.2082C93.9545 44.4594 95.6773 41.8339 96.8833 40.4324C100.656 36.0523 104.168 33.7503 109.898 33.208Z" fill="var(--fill-0, #FFE1CA)"/>
<path id="Vector_7" d="M90.2855 32.772L90.5541 32.7277L90.6679 32.8704C90.5212 33.7687 90.1388 34.506 89.9442 35.3541C88.7272 40.8789 90.8118 46.226 92.0494 51.64C94.2956 61.4696 93.1417 72.7427 82.4708 76.8919C81.9513 77.0939 79.7604 77.5523 79.2855 77.4165C79.2208 77.0364 79.2969 77.0809 79.5716 76.6829C83.1519 70.6092 84.1908 67.5823 83.6193 60.5528C83.0327 53.3357 80.833 48.9801 78.0747 42.5688C79.83 37.9424 85.379 33.5575 90.2855 32.772Z" fill="var(--fill-0, #FFE1CA)"/>
<path id="Vector_8" d="M45.0172 32.0645C51.9782 34.5332 55.4087 38.8768 58.8175 45.3142C54.7192 54.9598 51.9415 65.0656 57.6357 74.8596C57.9994 75.5298 58.3715 76.1343 58.7698 76.7823C56.8201 75.9526 54.7688 75.0293 53.1198 73.6719C46.2187 67.9907 44.5472 58.2271 45.6712 49.7987C46.387 45.5022 47.6683 41.528 47.1015 37.1053C46.8171 34.8863 45.8273 33.8996 45.0172 32.0645Z" fill="var(--fill-0, #FFE1CA)"/>
<path id="Vector_9" d="M60.9677 79.682C62.863 80.7076 65.6846 81.0202 67.8019 81.2104C71.3468 81.5289 74.8622 80.7994 78.2517 79.821C79.5266 80.9848 80.4657 82.4928 80.0107 84.2945C79.2881 87.1526 76.4683 87.6765 74.2431 88.9734C72.5975 90.1536 72.0785 91.4644 70.9373 93.0654C70.0751 94.2752 69.0691 94.646 67.8491 93.6499C66.6918 92.7051 65.861 91.358 64.7454 90.3525C62.6324 88.4479 58.7267 87.0425 58.7281 83.718C58.7315 81.9096 59.7955 80.8469 60.9677 79.682Z" fill="var(--fill-0, #FFE1CA)"/>
<path id="Vector_10" d="M50.8446 76.2095C51.683 75.9864 56.6725 78.3162 57.9164 78.7934C57.623 79.0924 57.3515 79.4124 57.1041 79.7507C55.518 81.9456 55.8773 84.3084 56.2668 86.8405C52.2771 87.0157 50.3587 87.1689 46.8659 85.109C42.926 82.3027 42.3072 81.6796 37.494 81.6842C39.5102 79.0532 40.5285 77.7168 43.6341 76.5014C46.2786 77.3047 48.2042 76.7354 50.8446 76.2095Z" fill="var(--fill-0, #FFE1CA)"/>
<path id="Vector_11" d="M97.7631 77.6042C99.4612 77.8629 100.384 79.9726 101.106 81.3539C94.3547 81.4759 93.6447 85.3609 88.1476 87.2128C87.1032 87.5649 85.4161 87.5383 84.3183 87.521C83.4289 87.4521 82.5394 87.3781 81.6513 87.299C82.5504 84.3321 82.3873 82.2774 81.6705 79.3665C85.0365 78.2853 86.8387 79.2498 89.9621 79.035C92.4373 78.8649 94.9659 77.8222 97.7631 77.6042Z" fill="var(--fill-0, #FFE1CA)"/>
<path id="Vector_12" d="M62.8759 119.259C63.5691 119.235 64.2454 119.435 64.397 120.208C63.7379 122.374 56.8678 121.575 55.051 121.332C54.3196 121.192 53.028 121.211 53.0947 120.418C54.013 119.251 57.1131 120.201 58.4917 120.017C59.9701 119.82 61.3986 119.448 62.8759 119.259Z" fill="var(--fill-0, black)"/>
<path id="Vector_13" d="M76.4494 121.871C77.1617 121.797 82.1666 121.448 82.368 122.298C82.686 123.648 79.9573 123.842 78.9942 123.916C77.6129 124.073 73.8083 124.319 72.9383 123.045C72.9985 121.966 75.6447 121.909 76.4494 121.871Z" fill="var(--fill-0, black)"/>
<path id="Vector_14" d="M68.9705 118.576C69.8247 118.502 73.1172 118.367 73.5965 118.793C75.5176 120.502 72.0129 120.836 71.4525 120.933C70.1018 121.153 66.9385 121.394 66.5013 119.66C66.7727 118.844 68.2286 118.636 68.9705 118.576Z" fill="var(--fill-0, black)"/>
<path id="Vector_15" d="M79.2533 114.329C80.3246 114.173 81.4252 114.326 82.4832 114.488C84.1361 116.948 82.9231 117.03 80.6207 117.023C79.4571 117.034 76.8896 117.051 76.3238 115.859C76.7008 114.983 77.7249 115.185 78.3726 114.486C78.5072 114.341 78.9922 114.352 79.2533 114.329Z" fill="var(--fill-0, black)"/>
<path id="Vector_16" d="M55.2292 122.815C56.4508 122.717 59.7763 122.631 60.4298 123.801L60.2789 124.096C59.5735 124.608 58.5112 124.782 57.6544 124.927C56.6503 125.059 52.1736 125.261 52.6794 123.591C53.375 122.96 54.2886 122.948 55.2292 122.815Z" fill="var(--fill-0, black)"/>
<path id="Vector_17" d="M81.1853 118.176C82.1433 118.158 84.6843 117.911 84.9118 119.192C84.4253 120.144 82.29 119.967 81.358 119.967C80.2232 119.966 77.6553 120.146 76.9974 119.164C77.6027 118.121 80.1246 118.196 81.1853 118.176Z" fill="var(--fill-0, black)"/>
<path id="Vector_18" d="M67.1248 121.991C68.381 121.854 71.15 121.631 71.6938 123.045L71.519 123.358C70.7332 123.88 70.0273 123.846 69.0908 123.912C68.2615 124.015 64.273 124.254 64.6944 122.809C65.4378 122.184 66.1734 122.151 67.1248 121.991Z" fill="var(--fill-0, black)"/>
</g>
<defs>
<clipPath id="clip0_0_31">
<rect width="137" height="137" fill="white"/>
</clipPath>
</defs>
</svg>
