<svg preserveAspectRatio="none" width="100%" height="100%" overflow="visible" style="display: block;" viewBox="0 0 270.205 91.1615" fill="none" xmlns="http://www.w3.org/2000/svg">
<path id="Vector 1" d="M0 12.4609V7.21423C23.0999 7.21423 64.5799 7.08306 70.1747 6.55839C71.192 -2.36102 83.0482 2.1891e-06 89.194 1.31168L97.9097 6.55839H226.337L238.069 0.655838L238.725 0L261.305 53.7788L270.205 86.5707L176.746 91.1615L127.791 88.5382H99.8171C101.089 75.2028 100.326 49.9749 87.1015 55.7463C73.8773 61.5176 71.8429 74.7656 72.4786 80.6681L66.1209 83.2915L49.5906 82.6356H45.1402L12.7155 46.5645C11.2321 40.8806 7.62933 28.8569 5.08622 26.2335C2.54311 23.6102 2.75504 19.4565 3.17889 17.7076L1.90733 13.7726L0 12.4609Z" fill="var(--fill-0, #F34A23)"/>
</svg>
